<svg width="45" height="27" fill="none" xmlns="http://www.w3.org/2000/svg"><g clip-path="url(#clip0_104_4730)"><rect x=".733" y=".128" width="44" height="26.4" rx="4" fill="#F7931A"/><g clip-path="url(#clip1_104_4730)" fill-rule="evenodd" clip-rule="evenodd" fill="#fff"><path d="M16.069 10.665c.282 0 .525.05.73.149.205.1.374.233.51.402.134.17.234.368.299.595.064.227.096.472.096.734 0 .402-.074.783-.224 1.142a2.872 2.872 0 01-1.525 1.565 2.8 2.8 0 01-1.142.231c-.053 0-.146-.001-.278-.004a4.027 4.027 0 01-.452-.04 5.286 5.286 0 01-.54-.104 2.714 2.714 0 01-.541-.193l1.52-6.357 1.362-.21-.544 2.256c.116-.052.234-.093.35-.122.119-.029.244-.044.379-.044zm-1.142 3.743c.205 0 .398-.05.58-.148a1.52 1.52 0 00.47-.398 2.003 2.003 0 00.427-1.22c0-.28-.047-.499-.141-.656-.094-.157-.267-.236-.519-.236-.082 0-.189.015-.32.043a.808.808 0 00-.357.184l-.58 2.396.092.018a.74.74 0 00.19.018h.158zm4.19.953h-1.301l1.099-4.6h1.31l-1.108 4.6zm.633-5.16a.81.81 0 01-.492-.16c-.148-.108-.22-.273-.22-.495a.81.81 0 01.074-.345.918.918 0 01.831-.538.81.81 0 01.492.162c.146.108.22.273.22.494a.812.812 0 01-.075.346.916.916 0 01-.83.537zm1.614-.585l1.363-.21-.335 1.356h1.46l-.264 1.066h-1.45l-.387 1.61a1.786 1.786 0 00-.062.375.685.685 0 00.044.302.38.38 0 00.19.196c.09.047.22.07.39.07.14 0 .277-.013.41-.04.13-.025.264-.061.399-.109l.096.998c-.175.064-.366.12-.57.165-.206.047-.45.07-.73.07-.405 0-.718-.06-.941-.178a1.043 1.043 0 01-.475-.49 1.549 1.549 0 01-.123-.713c.012-.268.053-.55.123-.848l.862-3.62zm2.43 3.909c0-.396.064-.77.193-1.12.129-.35.314-.655.554-.918.24-.262.532-.469.875-.62a2.803 2.803 0 011.147-.228 2.866 2.866 0 011.275.271l-.45 1.015a4.293 4.293 0 00-.364-.127 1.6 1.6 0 00-.461-.057c-.434 0-.778.149-1.033.445-.255.297-.383.697-.383 1.199 0 .297.065.537.194.721.129.184.366.275.712.275a2.417 2.417 0 00.914-.183l.097 1.04a4.67 4.67 0 01-.545.172 3.04 3.04 0 01-.712.073c-.363 0-.671-.053-.923-.157a1.757 1.757 0 01-.624-.424 1.595 1.595 0 01-.356-.626 2.54 2.54 0 01-.11-.75zm5.778 1.958c-.31 0-.58-.046-.808-.14a1.496 1.496 0 01-.567-.393 1.702 1.702 0 01-.338-.599 2.404 2.404 0 01-.114-.764c0-.35.057-.7.17-1.05.115-.35.283-.664.507-.944.221-.28.495-.509.817-.688a2.26 2.26 0 011.107-.266c.305 0 .573.047.805.14.23.094.42.225.571.394.149.17.262.368.338.599.076.23.114.485.114.765 0 .349-.056.7-.166 1.05a3.037 3.037 0 01-.493.944 2.58 2.58 0 01-.813.686 2.323 2.323 0 01-1.13.266zm.65-3.742a.825.825 0 00-.509.166 1.43 1.43 0 00-.369.42c-.1.17-.174.354-.225.555-.05.201-.074.392-.074.573 0 .291.048.518.14.682.095.163.264.245.51.245a.821.821 0 00.51-.167c.146-.11.27-.25.37-.42a2.07 2.07 0 00.224-.554c.05-.201.074-.393.074-.573 0-.291-.047-.519-.14-.682-.094-.163-.264-.245-.51-.245zm3.369 3.62H32.29l1.098-4.6h1.31l-1.107 4.6zm.632-5.16a.81.81 0 01-.492-.16c-.146-.108-.22-.273-.22-.495 0-.122.025-.237.075-.345a.91.91 0 01.484-.468.87.87 0 01.346-.07.81.81 0 01.493.162c.147.108.22.273.22.494a.824.824 0 01-.075.346.91.91 0 01-.83.537zm1.413.77c.098-.028.208-.063.329-.1a5.013 5.013 0 01.906-.183c.184-.022.394-.032.627-.032.686 0 1.16.199 1.42.595.261.397.307.94.137 1.627l-.598 2.483h-1.31l.58-2.431c.036-.152.064-.299.084-.442.02-.142.02-.267-.005-.376a.449.449 0 00-.161-.262c-.086-.067-.216-.1-.392-.1-.17 0-.342.018-.519.053l-.852 3.558h-1.31l1.063-4.39z"/></g><g clip-path="url(#clip2_104_4730)" fill-rule="evenodd" clip-rule="evenodd" fill="#fff"><path d="M20.28 18.448l-.267.482h-.288a21.914 21.914 0 011.167-1.876h.258c.027.136.052.273.075.41a22.564 22.564 0 01.192 1.466h-.267a11.337 11.337 0 01-.024-.245 7.759 7.759 0 00-.025-.237h-.821zm.797-.211a13.82 13.82 0 00-.117-.883 13.054 13.054 0 00-.558.882h.675zm1.303.733a.87.87 0 01-.31-.051.598.598 0 01-.225-.146.607.607 0 01-.135-.229.945.945 0 01-.045-.302 1.4 1.4 0 01.078-.465 1.26 1.26 0 01.22-.393c.095-.113.21-.204.344-.272a.983.983 0 01.45-.101c.14 0 .254.014.338.043a.776.776 0 01.18.081l-.108.217a.78.78 0 00-.424-.114.651.651 0 00-.338.088.844.844 0 00-.253.228 1.154 1.154 0 00-.212.66c0 .35.153.527.46.527a1.017 1.017 0 00.313-.045.725.725 0 00.106-.04 9.46 9.46 0 01.082-.037l.032.227a1.082 1.082 0 01-.367.113 1.34 1.34 0 01-.185.011zm1.53 0a.87.87 0 01-.312-.051.597.597 0 01-.224-.146.606.606 0 01-.135-.229.948.948 0 01-.045-.302 1.4 1.4 0 01.078-.465 1.24 1.24 0 01.22-.393c.095-.113.21-.204.344-.272a.983.983 0 01.45-.101c.14 0 .253.014.338.043a.776.776 0 01.18.081l-.108.217a.78.78 0 00-.425-.114.651.651 0 00-.337.088.845.845 0 00-.253.228 1.154 1.154 0 00-.212.66c0 .35.153.527.46.527a1.018 1.018 0 00.313-.045.725.725 0 00.106-.04 9.46 9.46 0 01.081-.037l.033.227a1.082 1.082 0 01-.367.113 1.34 1.34 0 01-.185.011zm.73-.04l.452-1.876h1.113l-.052.22H25.3l-.136.565h.757l-.052.214h-.754l-.16.658h.914l-.052.219H24.64zm2.352-1.895c.22 0 .385.042.496.125a.424.424 0 01.168.362.683.683 0 01-.07.318.594.594 0 01-.197.221.913.913 0 01-.307.129 1.76 1.76 0 01-.4.042h-.188l-.169.698h-.264l.447-1.851a1.44 1.44 0 01.242-.035c.085-.006.166-.009.242-.009zm-.033.222c-.128 0-.206.004-.233.011l-.18.744h.171c.077 0 .155-.006.234-.02a.702.702 0 00.215-.071.435.435 0 00.157-.143.41.41 0 00.06-.234c0-.102-.037-.176-.113-.22a.618.618 0 00-.31-.067zm2.306-.203l-.051.22h-.569l-.4 1.656h-.264l.4-1.657h-.569l.052-.219h1.401zm-.245 1.876l.452-1.876h1.113l-.052.22h-.851l-.136.565h.756l-.052.214h-.753l-.16.658h.913l-.051.219H29.02zm2.349-1.895c.279 0 .488.066.625.196.138.131.207.308.207.53 0 .155-.024.304-.073.447a1.04 1.04 0 01-.625.643c-.16.065-.352.098-.575.098-.076 0-.159-.004-.248-.011a1.312 1.312 0 01-.234-.038l.438-1.822a1.44 1.44 0 01.242-.035c.086-.005.166-.008.243-.008zm-.022.222c-.136 0-.218.004-.245.011l-.348 1.445a.51.51 0 00.073.01c.035.003.09.004.169.004.143 0 .272-.024.388-.072a.824.824 0 00.292-.2.897.897 0 00.185-.306c.044-.118.065-.247.065-.388a.49.49 0 00-.138-.371c-.093-.088-.24-.133-.441-.133zm2.886 1.673h-.264l.21-.872h-.873l-.21.872h-.264l.452-1.876h.264l-.19.785h.873l.19-.785h.264l-.452 1.876zm.417 0l.451-1.876h1.113l-.052.22h-.852l-.136.565h.757l-.052.214h-.754l-.16.658h.914l-.052.219h-1.178zm2.352-1.895c.2 0 .36.04.478.122.118.081.177.2.177.357a.587.587 0 01-.14.4.781.781 0 01-.393.23 4.262 4.262 0 01.256.562c.029.077.054.152.076.224h-.27a12.152 12.152 0 00-.161-.412 4.129 4.129 0 00-.162-.333 1.866 1.866 0 01-.142.006h-.21l-.176.739h-.264l.447-1.852c.076-.018.156-.03.242-.035.085-.005.165-.008.242-.008zm-.033.222c-.129 0-.207.004-.234.011l-.172.71h.161c.074 0 .15-.006.229-.017a.7.7 0 00.213-.063.417.417 0 00.158-.133.379.379 0 00.061-.226c0-.101-.038-.173-.115-.217a.608.608 0 00-.301-.065zm.708 1.673l.452-1.876h1.113l-.052.22h-.852l-.136.565h.756l-.051.214h-.754l-.16.658h.913l-.051.219h-1.178z"/></g><path fill-rule="evenodd" clip-rule="evenodd" d="M9.193 15.678a3.6 3.6 0 003.61-3.59 3.6 3.6 0 00-3.61-3.59 3.6 3.6 0 00-3.609 3.59 3.6 3.6 0 003.61 3.59zm.798-5.008c.5.171.865.428.793.906-.052.35-.247.52-.506.579.356.184.537.466.364.956-.213.607-.721.659-1.397.532l-.164.653-.396-.098.162-.645a15.884 15.884 0 01-.316-.082l-.162.648-.396-.098.164-.655-.105-.027-.177-.045-.516-.128.197-.451s.292.077.288.071c.112.028.162-.045.182-.093l.259-1.034.006.002.036.009a.272.272 0 00-.042-.014l.185-.737c.005-.084-.024-.19-.184-.23a5.194 5.194 0 00-.288-.07l.105-.421.547.135v.002l.252.06.163-.648.395.099-.159.634c.107.024.214.049.318.075l.158-.631.396.098-.162.648zm-.111 2.169c-.113.45-.82.263-1.143.178a5.257 5.257 0 00-.077-.02l.218-.867.097.022c.334.075 1.02.228.905.687zm-.837-1.089c.27.071.857.227.96-.18.104-.418-.467-.544-.746-.605a3.841 3.841 0 01-.082-.02l-.197.788.065.017z" fill="#fff"/></g><defs><clipPath id="clip0_104_4730"><path fill="#fff" transform="translate(.733 .128)" d="M0 0h44v26.4H0z"/></clipPath><clipPath id="clip1_104_4730"><path fill="#fff" transform="translate(12.932 8.38)" d="M0 0h27.28v7.48H0z"/></clipPath><clipPath id="clip2_104_4730"><path fill="#fff" transform="translate(19.442 16.91)" d="M0 0h19.8v2.2H0z"/></clipPath></defs></svg>