<svg width="45" height="27" fill="none" xmlns="http://www.w3.org/2000/svg"><g clip-path="url(#clip0_104_4619)"><rect x=".733" y=".128" width="44" height="26.4" rx="4" fill="#0069AA"/><path fill-rule="evenodd" clip-rule="evenodd" d="M9.334 15.96c0-.53-.277-.496-.543-.501v-.154c.23.011.467.011.697.011.248 0 .585-.01 1.022-.01 1.529 0 2.362 1.02 2.362 2.066 0 .585-.343 2.055-2.433 2.055-.301 0-.579-.012-.856-.012-.266 0-.526.006-.792.012v-.154c.354-.036.526-.047.543-.449V15.96zm.579 2.77c0 .454.325.507.614.507 1.276 0 1.695-.962 1.695-1.842 0-1.104-.709-1.9-1.848-1.9-.243 0-.354.017-.461.023v3.212zm3.166.543h.111c.166 0 .284 0 .284-.195v-1.6c0-.26-.088-.296-.307-.413v-.095c.277-.083.608-.194.632-.212a.208.208 0 01.106-.03c.03 0 .041.035.041.083v2.267c0 .195.13.195.296.195h.1v.154c-.2 0-.408-.012-.62-.012-.212 0-.425.006-.643.012v-.154zm.631-3.454a.303.303 0 01-.289-.295c0-.148.142-.284.29-.284a.29.29 0 01.289.284c0 .16-.13.295-.29.295zm1.193 1.695c0-.219-.065-.278-.342-.39v-.112c.253-.083.495-.16.779-.284.018 0 .035.012.035.059v.384c.337-.242.627-.443 1.023-.443.5 0 .678.366.678.827v1.523c0 .195.13.195.295.195h.107v.154c-.207 0-.414-.012-.626-.012-.213 0-.426.006-.638.012v-.154h.106c.166 0 .283 0 .283-.195v-1.529c0-.337-.205-.502-.542-.502-.19 0-.49.153-.686.284v1.747c0 .195.13.195.296.195h.106v.154c-.207 0-.413-.012-.626-.012-.212 0-.425.006-.638.012v-.154h.107c.165 0 .283 0 .283-.195v-1.564zm3.024.283c-.012.053-.012.142 0 .343.034.56.395 1.02.867 1.02.325 0 .58-.176.798-.394l.082.082c-.272.36-.608.668-1.092.668-.939 0-1.128-.91-1.128-1.288 0-1.157.78-1.5 1.192-1.5.479 0 .993.301.999.927 0 .036 0 .071-.006.107l-.053.035h-1.66zm1.045-.189c.147 0 .165-.077.165-.148 0-.3-.183-.543-.514-.543-.36 0-.608.266-.679.691h1.028zm.808 1.665h.16c.165 0 .283 0 .283-.195v-1.659c0-.183-.218-.219-.307-.266v-.088c.431-.183.668-.337.722-.337.034 0 .052.018.052.077v.532h.012c.147-.23.396-.609.756-.609.147 0 .336.1.336.313 0 .16-.111.302-.277.302-.183 0-.183-.143-.39-.143-.1 0-.431.137-.431.491v1.387c0 .195.118.195.283.195h.33v.154c-.324-.006-.571-.012-.826-.012-.242 0-.49.006-.702.012v-.154zm2.274-.667c.077.39.313.72.744.72.348 0 .478-.212.478-.419 0-.697-1.287-.472-1.287-1.423 0-.33.266-.756.915-.756.19 0 .443.053.673.172l.042.602h-.136c-.06-.372-.265-.585-.644-.585-.236 0-.46.136-.46.39 0 .691 1.37.478 1.37 1.405 0 .39-.313.804-1.016.804-.236 0-.514-.083-.72-.201l-.066-.68.107-.03zm7.026-2.232h-.147c-.112-.69-.602-.968-1.263-.968-.68 0-1.666.454-1.666 1.871 0 1.193.85 2.05 1.76 2.05.584 0 1.07-.402 1.187-1.022l.136.035-.136.862c-.248.154-.916.314-1.306.314-1.38 0-2.255-.892-2.255-2.22 0-1.211 1.081-2.08 2.238-2.08.478 0 .939.154 1.394.314l.058.844zm.214 2.899h.111c.166 0 .284 0 .284-.195V15.79c0-.384-.088-.396-.313-.461v-.095c.236-.076.484-.182.608-.254.065-.035.112-.065.13-.065.036 0 .047.036.047.083v4.08c0 .195.13.195.296.195h.1v.154c-.2 0-.407-.012-.62-.012a22.7 22.7 0 00-.643.012v-.154zm3.791-.171c0 .106.064.112.164.112.072 0 .16-.006.237-.006v.125a5.994 5.994 0 00-.85.183l-.03-.018v-.479c-.354.29-.626.497-1.046.497-.319 0-.649-.208-.649-.703v-1.512c0-.154-.023-.301-.354-.33v-.113c.213-.006.684-.041.762-.041.065 0 .065.041.065.171v1.523c0 .178 0 .685.514.685.2 0 .466-.153.714-.36v-1.588c0-.118-.284-.183-.496-.242V16.9c.531-.036.862-.083.921-.083.048 0 .048.041.048.106v2.179zm1.175-1.949c.236-.2.555-.425.88-.425.684 0 1.098.597 1.098 1.24 0 .774-.567 1.548-1.412 1.548-.437 0-.667-.143-.82-.207l-.177.135-.124-.064c.053-.349.082-.691.082-1.052V15.79c0-.384-.088-.396-.313-.461v-.095c.237-.076.484-.182.608-.254.065-.035.112-.065.13-.065.036 0 .047.036.047.083v2.155zm0 1.606c0 .225.212.603.608.603.631 0 .897-.62.897-1.146 0-.638-.484-1.169-.944-1.169-.22 0-.402.142-.561.278v1.434zM8.785 22.86h.045c.116 0 .238-.016.238-.183v-1.683c0-.168-.122-.184-.238-.184h-.045v-.096c.125 0 .318.013.476.013.16 0 .353-.013.504-.013v.096H9.72c-.115 0-.238.016-.238.184v1.683c0 .167.123.183.238.183h.045v.097c-.154 0-.347-.013-.507-.013-.158 0-.348.013-.473.013v-.097z" fill="#fff"/><path fill-rule="evenodd" clip-rule="evenodd" d="M9.765 22.97c-.155 0-.348-.012-.508-.012-.157 0-.346.013-.472.013h-.014v-.124h.059c.116-.003.223-.013.224-.17v-1.683c-.001-.157-.108-.167-.224-.17h-.06V20.7h.014c.126 0 .319.013.476.013.16 0 .352-.013.504-.013h.014v.125H9.72c-.117.002-.223.012-.224.17v1.682c0 .157.107.167.224.17h.06v.124h-.015zm-.014-.027v-.068h-.03c-.116 0-.252-.02-.253-.198v-1.683c0-.177.137-.197.252-.197h.031v-.069c-.148 0-.334.013-.49.013-.153 0-.338-.012-.462-.013v.069h.03c.115 0 .252.02.252.197v1.683c0 .178-.137.198-.251.198h-.031v.068c.124 0 .306-.013.458-.013.157 0 .343.012.494.013zm2.221-.62l.007-.006v-1.204c0-.264-.184-.303-.28-.303h-.07v-.096c.15 0 .298.013.45.013.13 0 .263-.013.394-.013v.096h-.047c-.136 0-.287.026-.287.408v1.462c0 .113.003.225.02.325h-.123l-1.654-1.845v1.324c0 .28.054.376.301.376h.055v.097c-.138 0-.276-.013-.414-.013-.144 0-.293.013-.437.013v-.097h.045c.221 0 .289-.15.289-.407v-1.354a.288.288 0 00-.292-.289h-.042v-.096c.122 0 .247.013.369.013.097 0 .19-.013.286-.013l1.43 1.61z" fill="#fff"/><path fill-rule="evenodd" clip-rule="evenodd" d="M12.158 23.019l-.132-.005-1.631-1.817v1.288c.004.28.046.358.288.362h.07v.124h-.015c-.14 0-.277-.013-.415-.013-.143 0-.291.013-.437.013h-.014v-.124h.06c.212-.002.273-.138.275-.394V21.1a.275.275 0 00-.278-.275h-.057V20.7h.014c.123 0 .249.013.37.013.095 0 .188-.013.296-.008l1.413 1.59v-1.182c-.002-.255-.172-.286-.266-.288h-.085V20.7h.014c.152 0 .3.013.45.013.13 0 .262-.013.395-.013h.014v.125h-.062c-.132.003-.268.015-.272.394v1.461c0 .113.003.225.019.323l.003.016h-.017zm-.122-.028h.106a2.172 2.172 0 01-.017-.31v-1.462c0-.386.162-.422.3-.423h.034v-.068c-.126.001-.253.013-.381.013-.147 0-.29-.012-.435-.013v.068h.056c.099 0 .293.044.293.317l-.004 1.215-.006.006-.011.01-1.429-1.616c-.095 0-.188.013-.287.013-.117 0-.238-.012-.354-.013v.068h.028c.15 0 .305.116.305.304v1.353c0 .257-.071.421-.302.422H9.9v.068c.139 0 .282-.013.422-.013.135 0 .268.012.4.013v-.068h-.04c-.253 0-.315-.11-.315-.39v-1.36l1.668 1.866zm-.064-.667l.01-.01-.01.01zm-.008-.007l-.002-.003.002.003zm.991-1.442c-.242 0-.25.058-.299.292h-.096c.012-.09.028-.18.038-.273.013-.09.02-.18.02-.273h.076c.026.096.107.093.194.093h1.657c.087 0 .167-.003.174-.1l.077.013c-.013.087-.026.174-.035.26-.006.087-.006.174-.006.26l-.097.036c-.007-.118-.023-.308-.238-.308h-.527v1.709c0 .248.113.276.267.276h.061v.097c-.125 0-.35-.013-.524-.013-.193 0-.418.013-.543.013v-.097h.061c.177 0 .267-.016.267-.27v-1.715h-.527z" fill="#fff"/><path fill-rule="evenodd" clip-rule="evenodd" d="M14.221 22.97c-.126 0-.351-.012-.524-.012-.192 0-.417.013-.543.013h-.014v-.125h.075c.177-.004.248-.006.252-.255v-1.703h-.512v-.028h.54v1.73c0 .259-.104.285-.28.285h-.047v.068c.126-.001.343-.013.53-.013.167 0 .381.012.509.013v-.068h-.047c-.156 0-.28-.038-.28-.29V20.86h.54c.216.001.244.184.25.304l.07-.026c0-.084 0-.168.006-.252.01-.083.022-.165.034-.247l-.05-.008c-.014.093-.105.098-.185.097H12.87c-.076 0-.158-.004-.187-.093h-.053c0 .089-.007.175-.019.26-.01.089-.024.174-.036.259h.069c.042-.224.07-.297.31-.294v.029c-.238.004-.233.044-.285.281l-.003.011h-.123l.001-.016c.013-.09.03-.18.039-.273.013-.09.02-.179.02-.27v-.015h.102l.002.01c.021.081.081.082.163.083h1.674c.09-.001.155-.003.16-.087l.001-.015.015.003.09.014-.002.015a7.954 7.954 0 00-.035.259c-.006.086-.006.172-.006.259v.01l-.01.003-.113.042v-.019c-.01-.12-.022-.296-.225-.296h-.513v1.696c.003.242.1.26.253.262h.075v.125h-.014zm.677-.11h.045c.116 0 .238-.016.238-.183v-1.683c0-.168-.122-.184-.238-.184h-.045v-.096c.196 0 .53.013.8.013s.604-.013.822-.013c-.005.138-.002.35.007.492l-.097.025c-.015-.209-.053-.375-.391-.375h-.446v.84h.382c.192 0 .234-.108.253-.282h.097a7.267 7.267 0 000 .742l-.097.02c-.019-.193-.028-.318-.25-.318h-.385v.748c0 .21.185.21.391.21.386 0 .556-.027.653-.392l.09.022c-.043.17-.08.34-.11.51-.206 0-.575-.012-.864-.012-.29 0-.671.013-.855.013v-.097z" fill="#fff"/><path fill-rule="evenodd" clip-rule="evenodd" d="M16.617 22.97c-.206 0-.576-.013-.864-.013-.29 0-.671.014-.855.014h-.013v-.124h.059c.116-.002.222-.013.223-.17v-1.683c-.001-.157-.107-.167-.223-.17h-.06V20.7h.014c.197 0 .53.013.8.013s.604-.013.823-.013h.014v.015a5.085 5.085 0 00.006.49v.011l-.01.004-.114.03v-.017c-.019-.209-.047-.36-.378-.364h-.433v.814h.369c.185-.002.218-.096.24-.27V21.4h.124v.015a7.603 7.603 0 000 .741v.012l-.012.003-.112.022v-.015c-.022-.196-.024-.304-.237-.306h-.372v.735c0 .195.169.194.378.195.387-.003.542-.021.639-.382l.003-.013.014.002.103.027-.003.013c-.042.17-.08.34-.11.51l-.002.012h-.01zm-.012-.027c.029-.163.065-.325.104-.487l-.063-.015c-.096.359-.282.391-.662.389-.202 0-.405 0-.406-.223v-.763h.4c.224-.002.247.133.263.316l.07-.014a6.811 6.811 0 010-.718h-.07c-.018.168-.07.285-.266.283h-.397v-.87h.461c.334-.002.39.17.404.373l.07-.019a5.405 5.405 0 01-.007-.467c-.218.001-.544.013-.808.013s-.589-.012-.786-.013v.068h.032c.114 0 .25.02.251.198v1.683c0 .178-.137.197-.251.198h-.032v.068c.188 0 .559-.013.841-.013.284 0 .645.012.852.013zm.555-1.889c0-.234-.128-.244-.228-.244h-.058v-.096c.103 0 .302.013.498.013.192 0 .347-.013.517-.013.405 0 .765.109.765.566 0 .288-.193.465-.447.565l.55.822c.09.136.154.174.311.193v.097c-.106 0-.209-.013-.314-.013-.1 0-.203.013-.302.013a8.907 8.907 0 01-.669-1.042h-.212v.688c0 .248.116.257.263.257h.058v.097c-.183 0-.369-.013-.552-.013-.154 0-.306.013-.466.013v-.097h.058c.12 0 .228-.054.228-.173v-1.633zm.411.745h.157c.322 0 .495-.121.495-.5 0-.286-.183-.47-.47-.47-.096 0-.137.01-.182.014v.956z" fill="#fff"/><path fill-rule="evenodd" clip-rule="evenodd" d="M19.069 22.97c-.108 0-.21-.012-.316-.012-.098 0-.2.013-.313.007a8.967 8.967 0 01-.665-1.035h-.19v.673c.004.242.1.24.25.244h.071v.124h-.014c-.184 0-.37-.013-.552-.013-.154 0-.305.013-.466.013h-.014v-.124h.072c.115-.001.213-.052.214-.16v-1.633c-.003-.227-.114-.226-.214-.23h-.072V20.7h.014c.104 0 .302.013.498.013.192 0 .346-.013.517-.013.405.001.778.113.78.58 0 .29-.193.47-.44.572l.54.808c.09.133.145.166.301.187l.012.001v.123h-.014zm-1.498-1.068h.22l.004.007c.21.37.42.716.657 1.034.097 0 .2-.013.3-.013.103 0 .203.012.302.013v-.07c-.15-.019-.221-.064-.309-.198l-.559-.836.016-.006c.251-.1.438-.271.438-.554 0-.445-.347-.549-.75-.551-.17 0-.324.013-.518.013-.189 0-.38-.012-.484-.013v.068h.044c.1 0 .242.017.242.259v1.632c0 .13-.121.188-.242.188h-.044v.068c.154 0 .3-.013.452-.013.18 0 .36.012.538.013v-.068h-.044c-.146 0-.277-.018-.277-.272v-.701h.014zm0-.088h-.014v-.984l.012-.001c.044-.004.088-.013.185-.013.293 0 .483.19.483.483 0 .384-.184.515-.508.515h-.158zm.157-.028c.319-.003.479-.113.482-.487-.002-.28-.176-.454-.456-.456-.087 0-.128.009-.169.012v.931h.143zm3.522.537l.005-.006v-1.204c0-.264-.182-.303-.279-.303h-.07v-.096c.15 0 .298.013.45.013.132 0 .262-.013.395-.013v.096h-.048c-.135 0-.286.026-.286.408v1.462c0 .113.003.225.019.325h-.122L19.66 21.16v1.324c0 .28.054.376.301.376h.055v.097c-.138 0-.277-.013-.415-.013-.145 0-.292.013-.437.013v-.097h.045c.222 0 .29-.15.29-.407v-1.354a.288.288 0 00-.293-.289h-.042v-.096c.122 0 .248.013.37.013.096 0 .19-.013.286-.013l1.43 1.61z" fill="#fff"/><path fill-rule="evenodd" clip-rule="evenodd" d="M21.436 23.019l-.132-.005-1.631-1.817v1.288c.004.28.046.358.288.362h.068v.124h-.014c-.139 0-.277-.014-.414-.014-.143 0-.292.014-.437.014h-.014v-.124h.059c.212-.001.273-.138.275-.395V21.1a.274.274 0 00-.278-.274h-.056V20.7h.014c.123 0 .249.013.37.013.094 0 .187-.013.295-.009l1.413 1.59v-1.181c-.001-.255-.172-.287-.266-.288h-.084V20.7h.014c.151 0 .3.013.45.013.13 0 .262-.013.394-.013h.015v.125h-.062c-.133.003-.27.015-.273.394v1.461c0 .113.003.224.02.323l.001.016h-.015zm-.122-.028h.105a2.196 2.196 0 01-.017-.31v-1.462c0-.386.163-.422.3-.423h.034v-.068c-.126.001-.253.013-.38.013-.148 0-.291-.012-.437-.013v.068h.057c.1.001.294.044.294.317l-.005 1.215-.006.006-.01.01-1.43-1.616c-.095 0-.188.013-.285.013-.12 0-.24-.012-.356-.013v.068h.028a.303.303 0 01.306.303v1.353c0 .258-.073.422-.303.423h-.031v.068c.139 0 .282-.013.423-.013.135 0 .268.012.4.013v-.068h-.04c-.253 0-.316-.11-.316-.39v-1.36l1.669 1.866zm-.065-.667l.01-.01-.01.01zm-.007-.007l-.003-.003.003.003zm1.026.18c-.033.11-.072.194-.072.25 0 .097.136.113.242.113h.036v.097a5.831 5.831 0 00-.736 0v-.097h.019c.125 0 .231-.074.279-.209l.514-1.474c.042-.12.1-.28.12-.4.102-.034.23-.098.291-.137.01-.003.017-.007.026-.007.01 0 .016 0 .023.01l.029.08.591 1.681c.039.112.077.231.118.328.04.09.107.128.213.128h.02v.097a9.176 9.176 0 00-.926 0v-.097h.035c.073 0 .2-.013.2-.093 0-.041-.03-.128-.065-.232l-.125-.372h-.73l-.102.334zm.469-1.423h-.007l-.299.91h.6l-.294-.91z" fill="#fff"/><path fill-rule="evenodd" clip-rule="evenodd" d="M23.98 22.97c-.145-.006-.29-.013-.443-.013-.157 0-.318.007-.482.014h-.014v-.125h.049c.075 0 .185-.017.185-.079a1.02 1.02 0 00-.063-.227l-.123-.363h-.708l-.1.325c-.033.109-.072.194-.071.246.001.078.12.098.227.098h.05v.125h-.015a7.184 7.184 0 00-.388-.014c-.114 0-.23.007-.346.014h-.015v-.125h.034c.12 0 .219-.069.265-.2l.515-1.474c.041-.119.1-.279.128-.407.1-.034.23-.1.291-.138.01-.003.018-.007.031-.007a.04.04 0 01.036.018l.029.081.591 1.68c.038.113.076.232.119.327.037.086.096.12.2.12h.032v.125h-.015zm-.911-.028c.159-.006.315-.012.468-.012.15 0 .29.006.429.012v-.067h-.005c-.11 0-.186-.043-.225-.138-.042-.097-.081-.216-.119-.328l-.592-1.681c-.01-.026-.018-.055-.027-.077-.003-.003-.002-.003-.005-.003h-.006l-.018.003c-.062.04-.191.104-.287.13-.02.12-.077.281-.119.4l-.514 1.475a.306.306 0 01-.292.219h-.006v.067c.11-.006.222-.012.333-.012.125 0 .251.006.374.012v-.067h-.02c-.105-.002-.252-.013-.255-.127 0-.064.04-.146.071-.255l.014.004-.014-.004.106-.343h.749l.129.381a.973.973 0 01.065.236c-.005.099-.14.106-.213.108h-.021v.067zm-.657-.945l.307-.937h.018v.014h-.004.004v-.014h.01l.305.937h-.64zm.038-.028h.563l-.28-.86-.283.86zm.273-.89l.007-.003-.007.002zm1.399-.204c-.241 0-.251.058-.3.292h-.096c.012-.09.029-.18.039-.273.012-.09.019-.18.019-.273h.077c.026.096.106.093.193.093h1.658c.086 0 .166-.003.173-.1l.077.013c-.012.087-.025.174-.035.26-.007.087-.007.174-.007.26l-.096.036c-.006-.118-.022-.308-.238-.308h-.527v1.709c0 .248.113.276.267.276h.061v.097c-.125 0-.35-.013-.524-.013-.192 0-.417.013-.543.013v-.097h.061c.178 0 .267-.016.267-.27v-1.715h-.526z" fill="#fff"/><path fill-rule="evenodd" clip-rule="evenodd" d="M25.387 22.97c-.126 0-.351-.012-.524-.012-.192 0-.417.013-.543.013h-.014v-.125h.075c.178-.004.249-.006.253-.255v-1.703h-.512v-.028h.54v1.73c0 .259-.104.284-.28.285h-.048v.068c.127-.001.343-.013.53-.013.167 0 .382.012.51.013v-.068h-.048c-.155 0-.28-.038-.28-.29V20.86h.54c.216.001.244.184.25.304l.07-.026c0-.084 0-.168.007-.252.009-.083.021-.165.033-.247l-.049-.008c-.014.093-.105.099-.185.097h-1.675c-.075 0-.157-.004-.187-.093h-.052c0 .088-.007.175-.02.26-.009.09-.024.174-.036.259h.069c.042-.224.07-.297.31-.294v.029c-.238.004-.232.044-.285.281l-.002.011h-.124l.002-.016c.013-.09.029-.18.038-.273.014-.09.02-.179.02-.27v-.015h.102l.002.01c.023.081.081.082.163.083h1.675c.089-.001.154-.003.16-.086v-.016l.015.003.091.014-.002.015a6.588 6.588 0 00-.035.259c-.007.086-.007.172-.007.259v.01l-.01.003-.113.042v-.019c-.009-.12-.022-.296-.225-.296h-.513v1.696c.004.242.1.26.253.262h.075v.125h-.014zm.693-.11h.046c.116 0 .237-.016.237-.183v-1.683c0-.168-.121-.184-.237-.184h-.045v-.096c.125 0 .318.013.475.013.16 0 .354-.013.505-.013v.096h-.045c-.116 0-.238.016-.238.184v1.683c0 .167.122.183.238.183h.045v.097c-.154 0-.347-.013-.508-.013-.157 0-.347.013-.472.013v-.097z" fill="#fff"/><path fill-rule="evenodd" clip-rule="evenodd" d="M27.061 22.97c-.155 0-.347-.013-.508-.013-.157 0-.347.014-.472.014h-.014v-.124h.059c.116-.002.223-.013.223-.17v-1.683c0-.157-.107-.167-.223-.17h-.059V20.7h.014c.125 0 .319.013.475.013.16 0 .353-.013.505-.013h.014v.125h-.059c-.117.002-.223.012-.224.17v1.682c0 .157.106.168.224.17h.059v.124h-.014zm-.014-.027v-.068h-.03c-.116 0-.252-.02-.252-.198v-1.683c0-.177.136-.197.251-.198h.03v-.068c-.148.001-.334.013-.49.013-.153 0-.337-.012-.461-.013v.068h.031c.114 0 .251.02.251.198v1.683c0 .178-.137.198-.251.198h-.031v.068c.124-.002.305-.013.458-.013.156 0 .342.012.494.013zm1.295-2.277c.685 0 1.231.425 1.231 1.109 0 .739-.53 1.23-1.214 1.23-.682 0-1.202-.462-1.202-1.153 0-.668.517-1.186 1.185-1.186zm.049 2.198c.623 0 .732-.55.732-1.018 0-.47-.253-1.038-.787-1.038-.562 0-.73.5-.73.931 0 .575.264 1.125.785 1.125z" fill="#fff"/><path fill-rule="evenodd" clip-rule="evenodd" d="M27.143 21.851a1.185 1.185 0 011.199-1.2v.029c-.66 0-1.171.51-1.172 1.171.001.684.514 1.14 1.189 1.14.677 0 1.2-.485 1.2-1.217 0-.676-.538-1.093-1.217-1.094v-.028c.69 0 1.244.43 1.245 1.122 0 .747-.538 1.243-1.228 1.245-.688-.002-1.215-.469-1.216-1.168zm.45-.112c0-.433.17-.946.743-.946.546.001.8.58.801 1.052-.001.469-.111 1.032-.746 1.032v-.027c.61-.001.717-.536.718-1.005 0-.465-.25-1.023-.773-1.024-.551 0-.714.49-.715.918 0 .572.261 1.11.77 1.11v.028c-.533 0-.797-.56-.798-1.138zm4.145.584l.007-.006v-1.204c0-.264-.184-.303-.28-.303h-.07v-.096c.15 0 .299.013.45.013.131 0 .263-.013.395-.013v.096h-.049c-.134 0-.286.026-.286.408v1.462c0 .113.003.225.02.325h-.122l-1.655-1.845v1.324c0 .28.054.376.301.376h.055v.097c-.138 0-.276-.013-.414-.013-.145 0-.293.013-.437.013v-.097h.045c.222 0 .289-.15.289-.407v-1.354a.288.288 0 00-.293-.289h-.041v-.096c.122 0 .247.013.37.013.096 0 .188-.013.285-.013l1.43 1.61z" fill="#fff"/><path fill-rule="evenodd" clip-rule="evenodd" d="M31.925 23.019l-.133-.005-1.63-1.817v1.288c.003.28.046.358.287.36h.07v.126h-.014c-.14 0-.277-.013-.415-.013-.144 0-.292.013-.438.013h-.013v-.125h.059c.212 0 .273-.137.275-.393v-1.354a.274.274 0 00-.278-.274h-.056V20.7h.014c.123 0 .248.013.37.013.095 0 .187-.013.296-.008l1.412 1.59v-1.182c-.001-.255-.172-.286-.266-.288h-.085V20.7h.015c.15 0 .3.013.449.013.131 0 .262-.013.396-.013h.013v.125h-.062c-.132.003-.269.015-.272.394v1.461c0 .113.003.225.019.323l.003.016h-.016zm-.122-.028h.105a2.28 2.28 0 01-.017-.31v-1.462c0-.387.163-.422.3-.423h.035v-.068c-.127.001-.254.013-.382.013-.146 0-.29-.012-.436-.013v.068h.057c.1.001.293.045.293.317l-.003 1.215-.006.006-.01.01-1.43-1.616c-.096 0-.19.013-.287.013-.118 0-.239-.012-.356-.013v.068h.029c.15.001.306.115.306.303v1.354c0 .257-.072.421-.303.422h-.032v.068c.14 0 .283-.013.424-.013.134 0 .267.012.4.013v-.068h-.04c-.253 0-.316-.11-.316-.39v-1.36l1.669 1.866zm-.065-.667l.01-.01-.01.01zm-.007-.007l-.003-.003.003.003zm1.025.18c-.032.11-.07.194-.07.25 0 .097.135.113.24.113h.036v.097a5.79 5.79 0 00-.736 0v-.097h.019c.126 0 .232-.074.28-.209l.514-1.474c.042-.12.1-.28.118-.4a1.65 1.65 0 00.294-.137c.009-.003.015-.007.025-.007.01 0 .016 0 .022.01l.03.08.59 1.681c.039.112.078.231.12.328.038.09.105.128.211.128h.02v.097a9.173 9.173 0 00-.926 0v-.097h.036c.073 0 .2-.013.2-.093 0-.041-.03-.128-.065-.232l-.126-.372h-.729l-.103.334zm.47-1.423h-.007l-.3.91h.603l-.296-.91z" fill="#fff"/><path fill-rule="evenodd" clip-rule="evenodd" d="M34.468 22.97c-.145-.005-.29-.013-.443-.013-.156 0-.317.008-.481.013l-.014.001v-.125h.049c.074 0 .185-.017.185-.079a.994.994 0 00-.064-.227l-.122-.363h-.71l-.099.324c-.032.11-.07.194-.07.246 0 .08.121.1.227.1h.05v.124h-.015c-.128-.006-.26-.014-.388-.014-.115 0-.23.008-.346.013l-.014.001v-.125h.032c.12 0 .22-.07.267-.2l.514-1.474c.041-.12.099-.279.127-.407.101-.035.23-.1.293-.138.008-.003.017-.007.03-.007a.035.035 0 01.035.019l.03.08.59 1.68c.04.113.078.232.12.328.037.084.095.118.198.12h.033v.124h-.014zm-.91-.028c.158-.006.314-.012.468-.012.149 0 .289.006.429.012v-.067h-.006c-.109 0-.184-.043-.225-.138-.042-.097-.08-.216-.119-.328l-.59-1.681a3.37 3.37 0 01-.028-.077c-.003-.004-.003-.004-.005-.004h-.006c-.007 0-.01.003-.018.005a1.224 1.224 0 01-.286.128c-.02.122-.078.282-.12.401l-.514 1.475a.306.306 0 01-.293.219h-.005v.067a6.1 6.1 0 01.333-.012c.124 0 .252.006.375.012v-.067h-.022c-.104-.002-.25-.013-.255-.128.001-.063.04-.145.072-.254l.013.004-.013-.004.106-.343h.749l.129.381c.035.103.064.189.064.236-.004.098-.14.106-.212.108h-.022v.067zm-.657-.945l.308-.937h.017v.014h-.004.004v-.014h.01l.303.937H32.9zm.038-.028h.562l-.28-.86-.282.86zm.273-.891l.007-.002-.007.002zm2.067 1.564c0 .129.089.167.192.18.131.01.276.01.424-.007a.457.457 0 00.308-.173.728.728 0 00.1-.232h.093c-.035.184-.08.364-.119.547-.282 0-.566-.013-.848-.013-.283 0-.565.013-.848.013v-.097h.045c.116 0 .241-.016.241-.215v-1.651c0-.168-.125-.184-.241-.184h-.045v-.096c.17 0 .337.013.508.013.164 0 .324-.013.488-.013v.096h-.08c-.123 0-.218.004-.218.174v1.658z" fill="#fff"/><path fill-rule="evenodd" clip-rule="evenodd" d="M36.277 22.97c-.283 0-.566-.012-.848-.012-.282 0-.565.013-.849.013h-.013v-.124h.059c.116-.003.226-.011.227-.202v-1.651c-.001-.157-.11-.167-.227-.17h-.06V20.7h.014c.172 0 .339.013.508.013.164 0 .324-.013.49-.013h.012v.125h-.094c-.124.003-.202-.003-.204.16v1.657c0 .12.08.152.18.166a2.603 2.603 0 00.421-.006.45.45 0 00.3-.168.725.725 0 00.096-.227l.003-.01h.121l-.003.017c-.036.183-.08.363-.12.546l-.002.01h-.01zm-.011-.027c.037-.175.079-.345.114-.519h-.067a.727.727 0 01-.098.227.477.477 0 01-.319.179 2.442 2.442 0 01-.427.006c-.104-.012-.206-.057-.205-.194v-1.658c0-.178.113-.188.232-.188h.067v-.068c-.159.001-.315.013-.475.013-.166 0-.329-.012-.493-.013v.068h.03c.115 0 .255.02.255.198v1.651c0 .208-.14.23-.254.23h-.031v.068c.278 0 .555-.013.834-.013.28 0 .558.012.837.013zm.091-2.32c.194 0 .339.149.339.34a.33.33 0 01-.339.336.331.331 0 01-.338-.337c0-.19.145-.339.338-.339zm0 .614a.272.272 0 00.268-.275.272.272 0 00-.268-.276.273.273 0 00-.268.276c0 .146.116.275.268.275zm-.168-.096v-.017c.041-.006.049-.005.049-.03v-.25c0-.036-.004-.048-.048-.046v-.018h.173c.06 0 .115.029.115.09 0 .05-.033.088-.08.102l.055.078a.362.362 0 00.075.08v.01h-.066c-.032 0-.06-.066-.122-.155h-.037v.112c0 .022.008.021.05.027v.017h-.164zm.114-.179h.04c.043 0 .064-.033.064-.086 0-.054-.031-.073-.066-.073h-.038v.16z" fill="#fff"/><path fill-rule="evenodd" clip-rule="evenodd" d="M16.289 9.37a5.442 5.442 0 1110.883 0 5.442 5.442 0 01-10.883 0z" fill="#0069AA"/><path fill-rule="evenodd" clip-rule="evenodd" d="M25.021 9.264a3.274 3.274 0 00-2.1-3.053v6.105a3.274 3.274 0 002.1-3.052zm-4.442 3.05V6.212a3.277 3.277 0 00-2.1 3.053 3.276 3.276 0 002.1 3.05zm1.171-8.21a5.16 5.16 0 10.003 10.32 5.16 5.16 0 00-.003-10.32zm-.012 10.805c-3.119.015-5.685-2.511-5.685-5.587 0-3.36 2.566-5.685 5.685-5.685h1.461c3.082 0 5.894 2.323 5.894 5.685 0 3.075-2.812 5.588-5.894 5.588h-1.461z" fill="#fff"/></g><defs><clipPath id="clip0_104_4619"><path fill="#fff" transform="translate(.733 .128)" d="M0 0h44v26.4H0z"/></clipPath></defs></svg>