<svg width="16" height="16" fill="none" xmlns="http://www.w3.org/2000/svg"><circle cx="8" cy="8" fill="#1877F2" r="8"/><path d="M8 2.8c-2.856 0-5.2 2.17-5.2 4.856 0 1.432.68 2.704 1.733 3.59V13.2l1.924-.937c.488.144 1 .251 1.543.251 2.856 0 5.2-2.17 5.2-4.857C13.2 4.97 10.856 2.8 8 2.8zm0 .844c2.409 0 4.333 1.802 4.333 4.012 0 2.21-1.924 4.012-4.333 4.012a4.647 4.647 0 01-1.476-.25l-.176-.053-.948.462v-.95l-.162-.133c-.962-.738-1.571-1.845-1.571-3.088 0-2.21 1.924-4.012 4.333-4.012zm-.487 2.68L4.899 9.016l2.343-1.267 1.246 1.307 2.586-2.733-2.289 1.254-1.272-1.253z" fill="#fff"/></svg>