<svg width="21" height="19" fill="none" xmlns="http://www.w3.org/2000/svg"><g clip-path="url(#clip0_1398_1059)"><path d="M.751 11.553v2.404c0 .997.871 1.701 1.936 1.701h16.129c1.065 0 1.936-.704 1.936-1.7v-2.405h-20z" fill="#F8D12E"/><path d="M18.816 3.342H2.686c-1.064 0-1.935.704-1.935 1.7v2.405h20V5.043c0-.997-.87-1.701-1.935-1.701z" fill="#333"/><path d="M20.752 7.447h-20v4.106h20V7.447z" fill="#DB2727"/><path d="M18.752 15.658c1.064 0 2-.704 2-1.7v-2.405h-7.29l5.29 4.105z" fill="#DBB30F"/><path d="M18.816 3.342H2.687l5.355 4.105h12.71V5.043c0-.997-.871-1.701-1.936-1.701z" fill="#000"/><path d="M13.493 11.553h7.258V7.447H8.01l5.483 4.106z" fill="#C10E0E"/><path d="M18.816 3.342H2.687l14.935 4.105h3.13V5.043c0-.997-.871-1.701-1.936-1.701z" fill="#000"/><path d="M20.752 8.268v-.82h-3.29l3.29.82z" fill="#A00808"/><path d="M20.752 13.928c0 1.085-.871 1.73-1.936 1.73H2.686c-1.064 0-1.935-.762-1.935-1.76" fill="#D89F12"/></g><defs><clipPath id="clip0_1398_1059"><path fill="#fff" transform="translate(.751 .41)" d="M0 0h20v18.182H0z"/></clipPath></defs></svg>