<svg width="45" height="28" fill="none" xmlns="http://www.w3.org/2000/svg"><g clip-path="url(#clip0_104_4589)"><rect x=".733" y=".728" width="44" height="26.4" rx="4" fill="#006"/><path fill-rule="evenodd" clip-rule="evenodd" d="M37.542 13.92c0 4.865-3.928 8.808-8.773 8.808s-8.773-3.943-8.773-8.807c0-4.865 3.928-8.808 8.773-8.808 4.846 0 8.773 3.943 8.773 8.808z" fill="#C00"/><path fill-rule="evenodd" clip-rule="evenodd" d="M21.992 19.514a8.728 8.728 0 01-.669-.933h3.11c.186-.3.355-.61.505-.933h-4.12a8.77 8.77 0 01-.371-.932h4.862a8.887 8.887 0 00.254-4.66h-5.37c.068-.318.154-.629.255-.933h4.86c-.106-.32-.23-.63-.37-.932h-4.12a9.11 9.11 0 01.506-.933h3.108a8.9 8.9 0 00-.668-.932h-1.771c.272-.332.568-.644.885-.932a8.723 8.723 0 00-5.89-2.28c-4.846 0-8.774 3.942-8.774 8.807 0 4.864 3.928 8.807 8.773 8.807a8.724 8.724 0 006.778-3.214h-1.773z" fill="#06C"/><path fill-rule="evenodd" clip-rule="evenodd" d="M22.753 16.3c-.375.1-.737.15-1.12.148-1.223 0-1.86-.56-1.86-1.63 0-1.248.81-2.167 1.911-2.167.9 0 1.475.515 1.475 1.322 0 .268-.04.529-.134.898H20.85c-.077.522.302.751.95.751a2.9 2.9 0 001.124-.226l-.17.905zm-.585-2.166c0-.079.121-.64-.508-.652-.348 0-.597.232-.698.652h1.206zm1.322-.244c0 .46.259.78.847 1.017.45.185.52.239.52.404 0 .229-.198.334-.64.33a3.634 3.634 0 01-.99-.141l-.158.841c.318.074.762.098 1.157.108 1.174 0 1.716-.386 1.716-1.22 0-.502-.226-.797-.784-1.017-.466-.187-.52-.227-.52-.397 0-.198.184-.299.544-.299.219 0 .517.02.801.055l.159-.847a8.58 8.58 0 00-.981-.072c-1.244 0-1.675.562-1.671 1.238zm-4.313 2.498h-.913l.022-.384c-.278.303-.649.444-1.151.444-.596 0-1.003-.409-1.003-.996 0-.893.708-1.408 1.927-1.408.125 0 .285.01.448.028a.793.793 0 00.043-.236c0-.245-.192-.335-.704-.335a4.199 4.199 0 00-1.163.163l.155-.82c.548-.139.906-.193 1.312-.193.943 0 1.442.372 1.442 1.07.007.186-.057.56-.09.723-.037.238-.298 1.618-.325 1.944zm-.801-1.63a2.163 2.163 0 00-.245-.014c-.622 0-.938.186-.938.553 0 .23.154.374.394.374.447 0 .77-.375.789-.912zm9.488 1.572c-.3.082-.533.118-.785.118-.559 0-.864-.286-.864-.797-.017-.14.12-.788.15-.969.031-.18.515-2.82.515-2.82h1.086l-.164.873h.556l-.15.891h-.56s-.307 1.547-.307 1.666c0 .187.113.269.373.269.124 0 .22-.012.295-.034l-.145.803zm4.851-3.679c-.796 0-1.418.33-1.779.878l.314-.814c-.578-.213-.95.09-1.287.522 0 0-.056.072-.113.138v-.64h-1.019c-.138 1.13-.382 2.275-.573 3.407l-.046.247h1.096c.105-.575.19-1.041.275-1.413.233-1.02.625-1.332 1.214-1.194-.136.293-.21.633-.21 1.008 0 .912.492 1.658 1.717 1.658 1.236 0 2.131-.662 2.131-2.174 0-.911-.596-1.623-1.72-1.623zm-.32 2.91c-.386.007-.621-.32-.621-.808 0-.578.342-1.232.893-1.232.444 0 .596.354.596.73 0 .824-.336 1.31-.867 1.31zm-16.775.828h-1.09l.649-3.433-1.495 3.433h-.995l-.182-3.413-.651 3.413h-.991l.844-4.466h1.706l.143 2.49 1.08-2.49h1.845l-.861 4.466z" fill="#006"/><path fill-rule="evenodd" clip-rule="evenodd" d="M23.027 16.026c-.375.1-.737.148-1.12.147-1.223 0-1.86-.56-1.86-1.63 0-1.248.81-2.167 1.91-2.167.901 0 1.476.515 1.476 1.322 0 .268-.039.528-.134.898h-2.175c-.077.521.302.751.949.751.387 0 .738-.07 1.125-.227l-.17.906zm-.585-2.167c0-.079.121-.64-.508-.652-.347 0-.597.232-.698.652h1.206zm1.322-.245c0 .461.259.78.847 1.018.45.185.52.238.52.403 0 .23-.198.334-.639.332a3.635 3.635 0 01-.99-.143l-.159.842c.318.074.763.098 1.156.107 1.175 0 1.717-.386 1.717-1.22 0-.502-.226-.797-.784-1.016-.466-.187-.52-.228-.52-.397 0-.199.184-.3.544-.3.218 0 .517.02.801.055l.16-.846a8.47 8.47 0 00-.982-.072c-1.244 0-1.675.561-1.67 1.237zm-4.314 2.499h-.912l.022-.384c-.278.303-.648.444-1.151.444-.595 0-1.003-.409-1.003-.996 0-.893.709-1.408 1.927-1.408.125 0 .285.01.448.027a.788.788 0 00.043-.235c0-.245-.191-.335-.704-.335a4.19 4.19 0 00-1.163.163l.155-.82c.548-.139.906-.193 1.312-.193.943 0 1.442.371 1.442 1.07.008.186-.057.559-.09.723-.037.238-.298 1.618-.325 1.944zm-.8-1.63a2.035 2.035 0 00-.245-.014c-.622 0-.938.185-.938.552 0 .231.155.375.394.375.447 0 .77-.375.789-.912zm9.488 1.572c-.3.083-.533.119-.785.119-.559 0-.864-.287-.864-.798-.017-.14.12-.788.15-.969.031-.18.515-2.82.515-2.82h1.086l-.164.873h.557l-.152.891h-.559s-.307 1.547-.307 1.665c0 .188.113.27.373.27.124 0 .22-.012.295-.034l-.145.803zm5.4-2.079c0 .823-.337 1.31-.868 1.31-.387.006-.622-.32-.622-.808 0-.578.343-1.232.893-1.232.444 0 .597.354.597.73zm1.172.023c0-.911-.597-1.623-1.72-1.623-1.293 0-2.13.865-2.13 2.14 0 .911.494 1.657 1.719 1.657 1.236 0 2.13-.662 2.13-2.174zm-5.605-1.54c-.138 1.13-.382 2.276-.573 3.408l-.046.246h1.097c.395-2.186.527-2.81 1.356-2.59l.398-1.034c-.578-.213-.95.09-1.286.523.03-.195.088-.383.074-.553h-1.02zm-13.21 3.654h-1.092l.649-3.432-1.495 3.432h-.995l-.182-3.412-.651 3.412h-.991l.844-4.465h1.707l.09 2.764 1.201-2.764h1.776l-.861 4.465z" fill="#fff"/></g><defs><clipPath id="clip0_104_4589"><path fill="#fff" transform="translate(.733 .728)" d="M0 0h44v26.4H0z"/></clipPath></defs></svg>