<svg width="70" height="70" fill="none" xmlns="http://www.w3.org/2000/svg"><g clip-path="url(#clip0_104_1580)"><path d="M26.352 59.764a2.084 2.084 0 01-.364.14h-.058a2.21 2.21 0 00.46-.177l-.038.037zm-1.207.216h-.365c.176.04.356.062.537.065l-.172-.066zm.469-.01h-.25c.162-.004.322-.023.48-.056l-.23.056zM9.707 52.463zm48.343-10.88a.329.329 0 010 .084.202.202 0 010 .047.595.595 0 000-.131zM9.678 52.444zm-.096-.15zm15.141 7.62l-.23-.066c-.077 0-.153-.065-.23-.112.153.085.317.148.488.187l-.028-.01z" fill="#56779C"/><path d="M52.416 54.096c.106-.056.144-.112.144-.15 0-.037 0-.093-.134-.149l-4.61-2.614a1.156 1.156 0 00-.527-.112 1.077 1.077 0 00-.536.12l-6.708 3.736c-.105.056-.153.112-.153.15 0 .037 0 .093.144.15l4.647 2.605c.16.088.343.13.527.12.187.008.372-.034.537-.12l6.67-3.736z" fill="#007695"/><path d="M52.55 53.536l-4.638-2.605a1.437 1.437 0 00-1.312 0l-6.708 3.735c-.364.205-.374.542 0 .747l4.609 2.605a1.47 1.47 0 001.332 0l6.708-3.735c.383-.187.373-.541.01-.747zm-7.867 4.296l-4.61-2.606c-.105-.056-.143-.112-.143-.15 0-.037 0-.093.154-.149l6.707-3.735c.165-.086.35-.128.537-.121.182-.005.363.034.527.112l4.609 2.614c.096.056.134.113.134.15 0 .037 0 .093-.144.15l-6.707 3.735c-.165.087-.35.129-.537.121a.978.978 0 01-.527-.121z" fill="#232323"/><path d="M3.306 53.106c.103.223.278.407.498.523l24.55 13.914c.068.04.138.075.211.103.076.038.157.066.24.084l.144.047h1.485c.192-.041.376-.11.546-.206l38.455-21.664.182-.113.057-.056s0-.046.067-.074a.76.76 0 00.067-.122.536.536 0 000-.121v1.307a.288.288 0 01-.057.122l-.067.074-.067.066h-.058l-.182.121L30.99 68.692a2.121 2.121 0 01-.546.205h-.278a1.33 1.33 0 01-.278 0l-.182.14h-.422a.7.7 0 01-.201 0h-.067a.98.98 0 01-.153-.056 2.273 2.273 0 01-.23-.084c-.068 0-.154 0-.211-.084L3.833 56.16a.953.953 0 01-.366-.301.92.92 0 01-.17-.437V52.91a.473.473 0 00.009.196z" fill="#0A1D23"/><path d="M27.349 54.544l4.12 2.335-2.722 1.54-4.12-2.343 2.722-1.532zm13.606-7.657l4.12 2.334-2.72 1.532-4.121-2.335 2.721-1.531zm-16.999 9.572l4.111 2.306-1.677.934a2.21 2.21 0 01-.46.177h-.115a2.679 2.679 0 01-.479.056 2.551 2.551 0 01-.537-.065 1.888 1.888 0 01-.488-.187l-3.057-1.727 2.702-1.495zm13.598-7.649l4.12 2.326-2.721 1.531-4.12-2.334 2.72-1.523zm-17.737 5.314l3.507 1.99-2.722 1.53-.01.01-3.516-1.99h.02l2.72-1.54zm-4.13-2.334l3.516 1.989-2.73 1.531-.01.01-3.508-1.99.02-.009 2.712-1.531zm28.67-6.808l4.12 2.334-2.711 1.523-4.13-2.335 2.721-1.522zm6.803-3.838l4.13 2.335-2.72 1.531-4.13-2.334 2.72-1.532zM30.75 52.64l4.12 2.324-2.72 1.532-4.121-2.335 2.721-1.522zm17.01-9.582l4.13 2.335-2.732 1.531-4.12-2.334 2.721-1.532zm-7.466-1.148l-3.507-1.99 2.722-1.53 3.516 1.988-2.73 1.532zm3.306-5.818l2.703-1.522 3.507 1.989-2.703 1.522-3.507-1.989zm-10.11 9.646l-3.507-1.989 2.722-1.531 3.507 1.989-2.721 1.531zm-3.4 1.906l-3.508-1.98 2.721-1.532 3.507 1.99-2.72 1.522zm-6.805 3.837l-3.507-1.989 2.722-1.531 3.507 1.989-2.722 1.531zM39.576 37.66l-3.508-1.988 2.722-1.532 3.507 1.99-2.721 1.53zm-2.674 6.154l-3.507-1.98 2.712-1.53 3.507 1.988-2.712 1.522zm10.818-5.388l2.703-1.522 3.517 1.99-2.712 1.522-3.507-1.99zm-27.836 14.97l-3.507-1.98 2.721-1.541 3.507 1.99-2.721 1.53zm6.851.803l-2.721 1.532-3.517-1.98 2.721-1.541 3.517 1.989zm9.439-14.624l-3.507-1.989 2.721-1.531 3.507 1.98-2.721 1.54zm7.465 1.149l3.507 1.989-2.722 1.531-3.507-1.989 2.721-1.531zm-16.952 8.843l-3.507-1.99 2.721-1.53 3.508 1.988-2.722 1.532zm-.067.738l3.517 1.98-2.721 1.53-3.517-1.988 2.721-1.522zm6.804-3.829l3.516 1.98-2.721 1.531-3.507-1.989 2.712-1.522zm-3.393 1.904l3.508 1.99-2.722 1.531-3.517-1.989 2.731-1.531zm9.439-14.623l1.639-.933a2.398 2.398 0 012.127 0l2.444 1.382-2.703 1.522-3.507-1.97zm.767 8.881l3.507 1.99-2.721 1.53-3.508-1.988 2.722-1.532zM9.899 50.36l1.667-.933 3.507 1.989-2.721 1.56-2.434-1.383a1.098 1.098 0 01-.335-.299.47.47 0 01-.068-.14v-.093a.667.667 0 01.077-.41.692.692 0 01.307-.29zm48.123-8.619a.663.663 0 01-.211.29 1.084 1.084 0 01-.201.14l-1.63.934-4.13-2.335 2.712-1.522 3.048 1.774a.744.744 0 01.303.24.717.717 0 01.138.358.467.467 0 01-.03.121zm-38.857 7.406l-3.507-1.99 2.712-1.531 3.507 1.989-2.712 1.532zm-3.411 1.914l-3.508-1.989 2.722-1.532 3.517 1.99-2.731 1.531zm10.214-5.752l-3.507-1.98 2.712-1.532 3.517 1.99-2.722 1.522zm-3.401 1.924l-3.507-1.99 2.721-1.531 3.507 1.989-2.721 1.532zm6.803-3.829l-3.507-1.99 2.722-1.53 3.507 1.988-2.722 1.532zm4.782 7.312l4.12 2.334-2.721 1.532-4.12-2.335 2.721-1.531zm2.683-6.164l3.507 1.99-2.721 1.53-3.507-1.988 2.721-1.532zm-4.063-3.072l-3.507-1.98 2.721-1.531 3.508 1.989-2.722 1.522zm7.427-3.474l2.712-1.531 3.516 1.989-2.721 1.531-3.507-1.989zm4.12 2.334l2.721-1.53 3.508 1.988-2.722 1.532-3.507-1.99z" fill="#00586F"/><path d="M51.841 40.761l2.712-1.522-.613-.346-2.712 1.523-3.507-1.99 2.702-1.522-.594-.355-2.702 1.523-3.527-1.98 2.703-1.522-.623-.346-2.703 1.522-3.507-1.989-.68.383 3.507 1.99-2.721 1.53-3.508-1.988-.68.383 3.507 1.989-2.721 1.531-3.507-1.989-.68.383 3.468 1.989-2.683 1.522-3.507-1.98-.68.383 3.507 1.99-2.722 1.53-3.497-1.988-.68.383 3.497 2.026-2.722 1.485-3.507-1.98-.68.383 3.507 1.98-2.721 1.531-3.508-1.989-.68.383 3.507 1.989-2.721 1.54-3.507-1.988-.68.383 3.507 1.989-2.722 1.531-3.507-1.989-.68.383 3.507 1.99-2.731 1.53.623.346 2.721-1.531 3.469 1.989-2.693 1.531.613.346 2.732-1.56 3.507 1.99-2.722 1.559.613.355 2.741-1.541 4.111 2.306.68-.383-4.12-2.343 2.721-1.532 4.12 2.335.681-.383-4.12-2.335 2.721-1.522 4.12 2.325.68-.383-4.12-2.316 2.722-1.531 4.12 2.335.68-.383-4.12-2.288 2.722-1.532 4.12 2.335.68-.383-4.12-2.334 2.721-1.532 4.12 2.335.69-.383-4.13-2.335 2.722-1.522 4.12 2.335.681-.393-4.12-2.362 2.721-1.532 4.13 2.335.68-.383-4.13-2.335 2.722-1.531 4.13 2.334.68-.382-4.13-2.335zm-10.924 1.494l2.721-1.531 3.508 1.989-2.722 1.531-3.507-1.989zm-3.402 1.868l2.731-1.485 3.508 1.99-2.731 1.53-3.508-2.035zm-3.401 1.96l2.721-1.53 3.507 1.989-2.721 1.531-3.508-1.99zm-3.402 1.869l2.712-1.532 3.516 2.073-2.721 1.494-3.507-2.035zM27.3 49.866l2.731-1.532 3.508 2.027-2.722 1.531-3.517-2.026zm-3.4 1.868l2.721-1.523 3.517 1.98-2.722 1.625-3.516-2.082zM20.497 53.6l2.721-1.373 3.517 1.99-2.721 1.531-3.517-2.148zm2.108-1.867l-2.721 1.531-3.508-1.989 2.722-1.532 3.507 1.99zm3.402-1.868l-2.722 1.615-3.507-1.989L22.5 47.96l3.507 1.905zm3.402-1.914l-2.722 1.531-3.507-1.924 2.693-1.512 3.536 1.905zm3.401-1.868l-2.721 1.569-3.507-1.961 2.721-1.532 3.507 1.924zm3.402-1.915l-2.673 1.57-3.508-1.99 2.722-1.531 3.46 1.951zm3.402-1.867l-2.712 1.522-3.507-1.98 2.712-1.531 3.507 1.989zm3.411-1.868l-2.73 1.522-3.508-1.989 2.731-1.531 3.507 1.998zm3.392-1.914l-2.711 1.475-3.46-1.989 2.722-1.531 3.45 2.045zm4.13 2.334l-2.72 1.476-3.508-1.99 2.721-1.53 3.508 2.044z" fill="#0A1D23"/><path d="M9.467 51.07v.094a.48.48 0 00.115.13c.036.046.074.09.115.131.059.053.123.1.192.14l2.434 1.382.623.346 3.507 1.989.613.345 3.517 1.99.613.354 3.067 1.728c.076 0 .153.075.23.112l.23.065h1.265c.125-.035.247-.082.364-.14l1.677-.934.68-.382 2.76-1.523.68-.382 2.722-1.532.68-.383 2.721-1.531.68-.383 2.722-1.532.68-.383 2.684-1.55.69-.382 2.711-1.523.68-.392 2.732-1.531.68-.383 2.721-1.532.68-.383 1.63-.933a1.09 1.09 0 00.316-.262.781.781 0 00.067-.121.159.159 0 000-.047.258.258 0 000-.084v1.046a.258.258 0 010 .084.315.315 0 01-.057.112.463.463 0 01-.115.121 1.077 1.077 0 01-.202.14L26.4 60.745h-.048l-.355.13h-.383a2.252 2.252 0 01-.25 0h-.584a1.655 1.655 0 01-.23-.084 1.798 1.798 0 01-.24-.083L9.938 52.564a.734.734 0 01-.305-.24.708.708 0 01-.136-.357v-.971s-.029.056-.029.074z" fill="#0A1D23"/><path d="M1.102 23.335a1.012 1.012 0 010-.158.6.6 0 010-.131v-.448a.328.328 0 000-.103.491.491 0 000-.103l.058-.102s0-.066.047-.094v-.047l.068-.102a.381.381 0 01.067-.103l.076-.084a1.65 1.65 0 01.499-.29v-.046l.134-.112c.1-.094.213-.176.335-.243L40.88-.515a.973.973 0 01.201-.084h.7l.325.187.173.103.45.252h.058-.604l-.019-.01h-.057a.793.793 0 00-.183.085l-4.14 2.39L3.46 21.72c-.12.07-.232.15-.335.243a.49.49 0 00-.096.102l-.057.047a.711.711 0 00-.106.13l-.124.104a.71.71 0 00-.077.102l-.067.103v.047a1.062 1.062 0 000 .103.435.435 0 00-.048.093.273.273 0 000 .075.868.868 0 010 .102v.112a.51.51 0 010 .112v.392a.91.91 0 000 .16l.067 23.084v4.585a.913.913 0 00.087.46.939.939 0 00.306.361c-1.092-.224-1.878-.653-2.626-1.073a.938.938 0 01-.295-.355.913.913 0 01-.088-.448l1.102-27.025z" fill="#004253"/><path d="M2.214 47.017l-.067-23.084c0-.093.01-.186.076-.373.037-.216.102-.426.192-.626.048-.103.153-.205.153-.299l.173-.261c.058-.082.122-.16.191-.234l.058-.046a2.023 2.023 0 01.47-.374L37.783 2.408 41.914.13c.196-.115.422-.174.651-.168.1.005.199.03.288.074a.94.94 0 01.308.366.913.913 0 01.085.466l.076 27.66c-.024.395-.13.78-.314 1.134a2.918 2.918 0 01-.75.92 2.203 2.203 0 01-.248.168L3.526 52.34a1.21 1.21 0 01-.507.168c-.48 0-.805-.326-.805-.933v-4.558z" fill="#007695"/><path d="M39.853 3.735l-1.063.607L5.5 23.065a2.52 2.52 0 00-.811.838c-.2.337-.316.716-.339 1.104l.068 21.842v1.215a1.038 1.038 0 000 .261 1.822 1.822 0 010-.243v-.075l34.209-19.246c.388-.241.71-.57.94-.959.23-.388.361-.825.382-1.273l-.067-22.785c.47-.252.863-.159 1.035.205-.163-.383-.575-.485-1.064-.214z" fill="#F2C53D"/><path d="M4.427 48.007l34.21-19.246c.387-.242.71-.57.94-.959.23-.388.36-.825.382-1.273l-.077-22.804c.45-.261.872-.168 1.045.224a.768.768 0 01.048.159c.01.084.01.168 0 .252l.067 23.075a2.42 2.42 0 01-.333 1.1 2.494 2.494 0 01-.808.833L5.578 48.726c-.556.318-1.016.131-1.13-.401a1.822 1.822 0 010-.243l-.02-.075z" fill="#00AED6"/><path style="mix-blend-mode:overlay" opacity=".16" d="M42.02 30.75L3.602 52.368a.76.76 0 00-.326.598.691.691 0 000 .196c.099.228.275.416.498.533l24.589 13.904c.184.107.385.183.594.224.22.05.445.075.67.075.204-.003.406-.025.605-.065h.143c.191-.043.375-.112.547-.206l38.521-21.664a1.3 1.3 0 00.21-.14.805.805 0 00.25-.336c.115-.337-.057-.692-.508-.935l-24.483-13.98a3.025 3.025 0 00-2.635 0l-.259.178z" fill="url(#paint0_linear_104_1580)"/><path d="M3.833 53.62L10.215 57c2.137 1.12 4.236 2.288 6.353 3.437l6.334 3.464 3.153 1.756 1.571.934.796.439c.221.142.468.244.728.299h-.048l.546.056h.633s.47-.169.508-.206l.632-.364 2.501-1.429a263.913 263.913 0 015.03-2.801l10.091-5.603c1.677-.934 3.383-1.868 5.07-2.802l5.107-2.885c1.686-.934 3.392-1.812 5.098-2.718l5.107-2.69v.057L49.35 57.27l-10.062 5.67-5.03 2.801-2.511 1.429-.623.345a4.421 4.421 0 01-.69.28c-.25.056-.479.056-.728.094l-.738-.075a2.73 2.73 0 01-.834-.355l-.785-.448-1.572-.887-3.143-1.756-6.286-3.558-12.515-7.134v-.056z" fill="#007695"/><g style="mix-blend-mode:multiply"><path d="M56.661 41.144c0 3.576-6.046 6.48-13.501 6.48-7.456 0-13.454-2.866-13.454-6.48 0-3.614 5.998-6.472 13.415-6.472 7.417 0 13.54 2.895 13.54 6.472z" fill="#FCFCFC" opacity=".02"/><path d="M56.47 41.144c0 3.53-5.96 6.415-13.349 6.415-7.388 0-13.32-2.857-13.32-6.387 0-3.53 6-6.406 13.32-6.406 7.321 0 13.349 2.857 13.349 6.378z" fill="#F9F9F9" opacity=".04"/><path d="M56.278 41.144c0 3.483-5.874 6.294-13.118 6.294-7.245 0-13.128-2.802-13.128-6.294 0-3.493 5.874-6.294 13.128-6.294 7.254 0 13.118 2.82 13.118 6.294z" fill="#F6F6F6" opacity=".06"/><path d="M56.086 41.144c0 3.427-5.75 6.21-12.936 6.21-7.187 0-12.936-2.802-12.936-6.21 0-3.409 5.75-6.201 12.936-6.201 7.187 0 12.936 2.773 12.936 6.2z" fill="#F3F3F3" opacity=".08"/><path d="M43.15 47.26c7.039 0 12.745-2.738 12.745-6.116 0-3.378-5.706-6.117-12.745-6.117-7.039 0-12.745 2.739-12.745 6.117s5.706 6.117 12.745 6.117z" fill="#F0F0F0" opacity=".1"/><path d="M43.15 47.167c6.938 0 12.563-2.697 12.563-6.023 0-3.327-5.625-6.023-12.563-6.023-6.938 0-12.563 2.696-12.563 6.023 0 3.326 5.625 6.023 12.563 6.023z" fill="#EDEDED" opacity=".12"/><path d="M43.15 47.074c6.832 0 12.37-2.655 12.37-5.93s-5.538-5.93-12.37-5.93c-6.832 0-12.371 2.655-12.371 5.93s5.539 5.93 12.37 5.93z" fill="#EAEAEA" opacity=".14"/><path d="M55.33 41.144c0 3.23-5.453 5.845-12.18 5.845-6.727 0-12.189-2.614-12.189-5.845s5.453-5.837 12.16-5.837c6.708 0 12.208 2.615 12.208 5.837z" fill="#E7E7E7" opacity=".16"/><path d="M55.138 41.144c0 3.184-5.366 5.752-11.988 5.752-6.621 0-11.997-2.568-11.997-5.752 0-3.184 5.366-5.725 11.968-5.725 6.603 0 12.017 2.55 12.017 5.725z" fill="#E4E4E4" opacity=".18"/><path d="M43.14 46.803c6.52 0 11.806-2.534 11.806-5.66 0-3.124-5.286-5.658-11.806-5.658s-11.805 2.534-11.805 5.659 5.285 5.659 11.805 5.659z" fill="#E1E1E1" opacity=".2"/><path d="M54.764 41.144c0 3.081-5.203 5.602-11.624 5.602-6.42 0-11.614-2.493-11.614-5.602 0-3.11 5.204-5.603 11.614-5.603 6.411 0 11.624 2.53 11.624 5.603z" fill="#DEDEDE" opacity=".22"/><path d="M54.62 41.144c0 3.035-5.165 5.481-11.499 5.481-6.334 0-11.403-2.446-11.403-5.481 0-3.035 5.117-5.482 11.403-5.482 6.286 0 11.5 2.456 11.5 5.482z" fill="#DBDBDB" opacity=".24"/><path d="M54.38 41.144c0 2.979-5.03 5.397-11.24 5.397S31.9 44.123 31.9 41.144c0-2.98 5.03-5.389 11.221-5.389 6.19 0 11.26 2.41 11.26 5.389z" fill="#D8D8D8" opacity=".25"/><path d="M43.14 46.448c6.102 0 11.049-2.375 11.049-5.304 0-2.93-4.947-5.305-11.049-5.305-6.102 0-11.048 2.375-11.048 5.305 0 2.929 4.946 5.304 11.048 5.304z" fill="#D5D5D5" opacity=".27"/><path d="M43.14 46.355c6.002 0 10.867-2.333 10.867-5.211s-4.865-5.21-10.867-5.21c-6.001 0-10.866 2.332-10.866 5.21s4.865 5.21 10.866 5.21z" fill="#D2D2D2" opacity=".29"/><path d="M43.14 46.261c5.896 0 10.675-2.291 10.675-5.117s-4.78-5.118-10.675-5.118c-5.895 0-10.675 2.291-10.675 5.118 0 2.826 4.78 5.117 10.675 5.117z" fill="#CFCFCF" opacity=".31"/><path d="M53.662 41.144c0 2.801-4.695 5.033-10.54 5.033-5.846 0-10.484-2.25-10.484-5.033 0-2.783 4.734-5.024 10.483-5.024 5.75 0 10.54 2.25 10.54 5.024z" fill="#CCC" opacity=".33"/><path d="M43.13 46.084c5.69 0 10.302-2.212 10.302-4.94 0-2.729-4.612-4.94-10.301-4.94-5.69 0-10.301 2.211-10.301 4.94 0 2.728 4.612 4.94 10.3 4.94z" fill="#C9C9C9" opacity=".35"/><path d="M53.24 41.144c0 2.68-4.523 4.856-10.11 4.856-5.586 0-10.109-2.176-10.109-4.856 0-2.68 4.523-4.847 10.1-4.847s10.12 2.176 10.12 4.847z" fill="#C6C6C6" opacity=".37"/><path d="M53.049 41.144c0 2.633-4.437 4.762-9.918 4.762-5.481 0-9.918-2.082-9.918-4.762 0-2.68 4.437-4.791 9.908-4.791 5.472 0 9.928 2.166 9.928 4.79z" fill="#C3C3C3" opacity=".39"/><path d="M52.857 41.144c0 2.577-4.35 4.669-9.726 4.669-5.376 0-9.736-2.092-9.736-4.67 0-2.577 4.36-4.668 9.736-4.668s9.726 2.091 9.726 4.669z" fill="silver" opacity=".41"/><path d="M43.13 45.72c5.272 0 9.545-2.05 9.545-4.576 0-2.527-4.273-4.576-9.544-4.576-5.271 0-9.544 2.049-9.544 4.576 0 2.527 4.273 4.575 9.544 4.575z" fill="#BDBDBD" opacity=".43"/><path d="M43.121 45.626c5.165 0 9.353-2.007 9.353-4.482 0-2.476-4.188-4.483-9.353-4.483s-9.352 2.007-9.352 4.483c0 2.475 4.187 4.482 9.352 4.482z" fill="#BABABA" opacity=".45"/><path d="M52.292 41.144c0 2.428-4.102 4.398-9.17 4.398-5.07 0-9.162-1.97-9.162-4.398s4.102-4.39 9.161-4.39c5.06 0 9.17 1.962 9.17 4.39z" fill="#B7B7B7" opacity=".47"/><path d="M52.1 41.144c0 2.381-4.015 4.305-8.979 4.305-4.964 0-8.979-1.924-8.979-4.305s4.025-4.305 8.98-4.305c4.953 0 8.978 1.933 8.978 4.305z" fill="#B4B4B4" opacity=".49"/><path d="M51.908 41.144c0 2.334-3.928 4.22-8.787 4.22-4.858 0-8.787-1.867-8.787-4.22 0-2.353 3.929-4.212 8.787-4.212 4.859 0 8.787 1.886 8.787 4.212z" fill="#B1B1B1" opacity=".51"/><path d="M51.745 41.144c0 2.278-3.833 4.127-8.624 4.127s-8.624-1.867-8.624-4.127 3.833-4.119 8.624-4.119 8.624 1.84 8.624 4.119z" fill="#AEAEAE" opacity=".53"/><path d="M51.535 41.144c0 2.231-3.766 4.034-8.414 4.034-4.647 0-8.413-1.803-8.413-4.034 0-2.232 3.766-4.035 8.413-4.035 4.648 0 8.414 1.812 8.414 4.035z" fill="#ABABAB" opacity=".55"/><path d="M51.343 41.144c0 2.185-3.68 3.95-8.222 3.95s-8.231-1.765-8.231-3.95c0-2.185 3.69-3.94 8.231-3.94 4.542 0 8.222 1.764 8.222 3.94z" fill="#A8A8A8" opacity=".57"/><path d="M51.151 41.144c0 2.129-3.593 3.857-8.04 3.857-4.446 0-8.03-1.728-8.03-3.857 0-2.13 3.594-3.857 8.04-3.857 4.447 0 8.03 1.728 8.03 3.857z" fill="#A5A5A5" opacity=".59"/><path d="M43.112 44.907c4.334 0 7.848-1.685 7.848-3.763 0-2.079-3.514-3.764-7.848-3.764-4.335 0-7.849 1.685-7.849 3.764 0 2.078 3.514 3.763 7.849 3.763z" fill="#A2A2A2" opacity=".61"/><path d="M43.112 44.813c4.228 0 7.656-1.643 7.656-3.67 0-2.026-3.428-3.67-7.656-3.67-4.229 0-7.657 1.644-7.657 3.67 0 2.027 3.428 3.67 7.657 3.67z" fill="#9F9F9F" opacity=".63"/><path d="M50.576 41.144c0 1.98-3.344 3.614-7.455 3.614-4.11 0-7.474-1.606-7.474-3.586 0-1.98 3.335-3.605 7.474-3.605 4.14 0 7.455 1.588 7.455 3.577z" fill="#9C9C9C" opacity=".65"/><path d="M43.112 44.636c4.022 0 7.282-1.563 7.282-3.492s-3.26-3.493-7.282-3.493-7.283 1.564-7.283 3.493c0 1.929 3.26 3.492 7.283 3.492z" fill="#999" opacity=".67"/><path d="M50.203 41.144c0 1.867-3.182 3.408-7.091 3.408-3.91 0-7.101-1.522-7.101-3.408 0-1.887 3.181-3.4 7.11-3.4 3.929 0 7.082 1.523 7.082 3.4z" fill="#969696" opacity=".69"/><path d="M50.011 41.144c0 1.867-3.095 3.315-6.909 3.315-3.814 0-6.9-1.485-6.9-3.315 0-1.83 3.086-3.306 6.92-3.306 3.832 0 6.889 1.475 6.889 3.306z" fill="#939393" opacity=".71"/><path d="M49.829 41.144c0 1.783-3.009 3.221-6.708 3.221-3.699 0-6.708-1.475-6.708-3.221 0-1.747 3.01-3.222 6.708-3.222 3.699 0 6.708 1.447 6.708 3.222z" fill="#909090" opacity=".73"/><path d="M43.102 44.272c3.604 0 6.526-1.4 6.526-3.128 0-1.728-2.922-3.128-6.526-3.128-3.604 0-6.526 1.4-6.526 3.128 0 1.728 2.922 3.128 6.526 3.128z" fill="#8D8D8D" opacity=".75"/><path d="M49.446 41.144c0 1.68-2.875 3.044-6.344 3.044-3.469 0-6.344-1.363-6.344-3.044s2.875-3.035 6.344-3.035c3.469 0 6.344 1.363 6.344 3.035z" fill="#8A8A8A" opacity=".76"/><path d="M49.254 41.144c0 1.634-2.76 2.95-6.152 2.95-3.392 0-6.152-1.316-6.152-2.95 0-1.635 2.75-2.923 6.171-2.923 3.421 0 6.133 1.298 6.133 2.923z" fill="#878787" opacity=".78"/><path d="M49.062 41.144c0 1.578-2.673 2.867-5.96 2.867s-5.97-1.29-5.97-2.867c0-1.578 2.674-2.858 5.97-2.858 3.297 0 5.96 1.28 5.96 2.858z" fill="#848484" opacity=".8"/><path d="M48.87 41.144c0 1.531-2.587 2.801-5.749 2.801-3.162 0-5.75-1.242-5.75-2.801 0-1.56 2.588-2.802 5.75-2.802s5.75 1.28 5.75 2.802z" fill="#818181" opacity=".82"/><path d="M48.679 41.144c0 1.485-2.501 2.68-5.558 2.68s-5.577-1.195-5.577-2.68 2.492-2.68 5.577-2.68c3.086 0 5.558 1.205 5.558 2.68z" fill="#7E7E7E" opacity=".84"/><path d="M48.487 41.144c0 1.429-2.414 2.596-5.395 2.596-2.98 0-5.395-1.167-5.395-2.596s2.415-2.587 5.395-2.587c2.98 0 5.395 1.158 5.395 2.587z" fill="#7B7B7B" opacity=".86"/><path d="M48.305 41.144c0 1.382-2.338 2.502-5.213 2.502-2.874 0-5.203-1.12-5.203-2.502 0-1.382 2.357-2.494 5.232-2.494s5.184 1.121 5.184 2.494z" fill="#787878" opacity=".88"/><path d="M48.114 41.144c0 1.335-2.252 2.409-5.021 2.409-2.77 0-5.022-1.074-5.022-2.41 0-1.335 2.252-2.4 5.022-2.4 2.769 0 5.02 1.075 5.02 2.4z" fill="#757575" opacity=".9"/><path d="M47.912 41.144c0 1.279-2.165 2.315-4.79 2.315-2.626 0-4.792-1.036-4.792-2.316 0-1.279 2.156-2.315 4.791-2.315 2.635 0 4.791 1.036 4.791 2.316z" fill="#727272" opacity=".92"/><path d="M43.093 43.366c2.566 0 4.647-.995 4.647-2.222 0-1.228-2.08-2.223-4.648-2.223-2.566 0-4.647.995-4.647 2.223 0 1.227 2.08 2.222 4.648 2.222z" fill="#6F6F6F" opacity=".94"/><path d="M47.539 41.144c0 1.186-1.993 2.138-4.456 2.138s-4.446-.934-4.446-2.138c0-1.205 1.993-2.13 4.484-2.13 2.492 0 4.418.953 4.418 2.13z" fill="#6C6C6C" opacity=".96"/><path d="M47.357 41.144c0 1.13-1.917 2.045-4.274 2.045s-4.264-.934-4.264-2.045c0-1.111 1.916-2.045 4.264-2.045 2.348 0 4.274.915 4.274 2.045z" fill="#696969" opacity=".98"/><path d="M47.165 41.144c0 1.083-1.83 1.96-4.082 1.96s-4.073-.877-4.073-1.96 1.821-1.99 4.111-1.99 4.044.935 4.044 1.99z" fill="#666"/></g><path d="M37.075 38.296l9.19-.262-9.19.262zm0-.001zm-.326.141zm-.002-.001z" fill="#21BFA2"/><path d="M48.296 38.314v.066a.756.756 0 01-.096.242 1.3 1.3 0 01-.297.318l-.958.728.958.196.326.066a.731.731 0 00.076-.309v-1.4s-.01.074-.01.093z" fill="#198F7A"/><path d="M44.482 39.958l.057-.056-.057.056z" fill="#A6E5DA"/><path d="M44.472 39.995l.008-.037-.008.037z" fill="#7AD9C7"/><path d="M44.482 39.958l.057-.056 2.041-1.523.068-.056a.138.138 0 000-.121.217.217 0 00-.106-.103.576.576 0 00-.278-.065l-9.19.261a.527.527 0 00-.23.056.275.275 0 00-.095.084l7.733 1.523z" fill="#A6E5DA"/><path d="M50.97 40.527a1.082 1.082 0 00-.336-.121l-2.415-.476-.307-.066-.958-.196.958-.728a1.31 1.31 0 00.297-.318.753.753 0 00.096-.242v-.066a.814.814 0 00-.096-.427.84.84 0 00-.306-.32l-.182-.121a3.141 3.141 0 00-1.533-.337l-9.19.262a2.225 2.225 0 00-.988.171 2.17 2.17 0 00-.804.585.68.68 0 00-.067.617v.056c.039.079.09.151.153.215l.058.065c.092.09.195.168.306.233h.096l6.928 3.427a3.256 3.256 0 001.84.253 1.952 1.952 0 001.39-.729.705.705 0 00.115-.355v-.934l3.804.794a1.178 1.178 0 001.14-.308l.25-.41a.3.3 0 000-.15.44.44 0 00-.25-.374zm-6.43-.625l-.058.056v.065l-.058 1.868v.065a.21.21 0 01-.096.084.499.499 0 01-.239.056.606.606 0 01-.259-.047l-6.928-3.436a.245.245 0 01-.096-.103.155.155 0 010-.112.274.274 0 01.096-.084.518.518 0 01.23-.056l9.19-.261a.578.578 0 01.278.065.218.218 0 01.105.103.138.138 0 010 .121l-.067.056-2.099 1.56z" fill="#21BFA2"/><path d="M36.749 38.435a.155.155 0 000 .113.245.245 0 00.096.102l6.928 3.437a.6.6 0 00.258.046.499.499 0 00.24-.056.209.209 0 00.096-.084v-.065l.057-1.868v-.065l-7.675-1.56z" fill="#7AD9C7"/><path d="M51.237 40.9a.3.3 0 010 .15l-.249.41c-.145.151-.33.26-.535.314a1.18 1.18 0 01-.624-.005l-3.757-.747v.934a.706.706 0 01-.114.355 1.922 1.922 0 01-1.39.728 3.257 3.257 0 01-1.84-.252L35.8 39.36h-.096a1.613 1.613 0 01-.306-.234l-.058-.065a.811.811 0 01-.153-.215v-.056a.683.683 0 010-.243v1.373a.92.92 0 00.179.485.955.955 0 00.415.318l.096.056 6.918 3.427c.58.253 1.222.337 1.85.243a1.96 1.96 0 00.775-.218c.24-.126.449-.3.614-.51a.78.78 0 00.115-.346v-.934l3.718.738a1.169 1.169 0 001.14-.308l.26-.41a.373.373 0 000-.169v-1.4l-.03.009zM36.979 1.69V.41a1.392 1.392 0 00-.198-.703 1.438 1.438 0 00-.53-.515 1.486 1.486 0 00-1.447-.005L10.119 13.082c-.59.332-1.077.81-1.414 1.386a3.661 3.661 0 00-.502 1.892v29.556l.584.401 28.24-16.64-.048-27.988z" fill="#198F7A"/><path d="M8.806 46.28l28.796-16.202V2.063L8.758 18.293l.048 27.987z" fill="#D3F2EC"/><path d="M37.563 2.09V.813A1.383 1.383 0 0037.371.1a1.43 1.43 0 00-.534-.52 1.476 1.476 0 00-1.458.01L10.694 13.483a3.784 3.784 0 00-1.412 1.381 3.661 3.661 0 00-.504 1.887v1.54L37.563 2.092zm-1.341 5.856L11.24 22.084v-.887L36.222 7.06v.887zm0-1.727L11.24 20.357v-.887L36.222 5.332v.887z" fill="#21BFA2"/><path d="M32.916 16.584l-17.498 9.843v9.338l17.527-9.861-.03-9.32zm-13.31 11.309l-.125.299c-.238.55-.43 1.118-.575 1.7-.1.45-.15.91-.153 1.372v.168a1.52 1.52 0 01-.213.674 1.568 1.568 0 01-.496.512c-.403.224-.729.047-.729-.402v-.261c0-.381.048-.76.144-1.13a5.84 5.84 0 01.46-1.167c.106-.206.307-.542.604-1 .297-.457.527-.84.67-1.12l-.306.299c-.097.078-.2.15-.307.214-.17.095-.35.173-.536.234a2.015 2.015 0 00-.384.15.943.943 0 00-.412.448 1.625 1.625 0 00-.114.663v.27l-.786.44v-2.223l.795-.449v.486a2.42 2.42 0 01.364-.635 1.8 1.8 0 01.527-.439c.24-.134.503-.22.776-.252a2.18 2.18 0 00.537-.103.559.559 0 00.172-.158.42.42 0 00.058-.215v-.056l.604-.336v.149a6.418 6.418 0 01-.575 1.868zm1.35 3.464v-6.733l.518-.299v6.733l-.517.3zm4.63-6.826c-.049.121-.097.224-.125.29a12.437 12.437 0 00-.575 1.708 5.91 5.91 0 00-.144 1.42v.168a1.55 1.55 0 01-.216.695 1.595 1.595 0 01-.512.528c-.403.224-.729 0-.729-.41v-.253c-.004-.38.041-.76.135-1.13a5.84 5.84 0 01.46-1.167c.102-.206.303-.542.603-1.009.307-.467.527-.84.671-1.11a2.178 2.178 0 01-.307.289c-.095.08-.198.152-.306.214a3.038 3.038 0 01-.527.234l-.384.15a.888.888 0 00-.392.4 1.593 1.593 0 00-.116.664v.261l-.795.449v-2.26l.795-.44v.477a2.56 2.56 0 01.365-.635 1.95 1.95 0 01.527-.439c.24-.13.503-.213.776-.243.183-.012.364-.05.537-.112a.398.398 0 00.172-.159.394.394 0 00.058-.205v-.056l.613-.336v.14a6.307 6.307 0 01-.585 1.877zm1.35 3.418v-6.733l.527-.29v6.733l-.527.29zm4.686-6.799c-.048.131-.096.234-.124.3a11.97 11.97 0 00-.575 1.699 5.92 5.92 0 00-.144 1.373v.177a1.513 1.513 0 01-.214.693 1.56 1.56 0 01-.514.521c-.393.224-.719.047-.719-.402v-.252c-.004-.384.04-.766.134-1.139a5.84 5.84 0 01.46-1.167c.106-.196.307-.542.613-1.009a12.3 12.3 0 00.662-1.111 3.037 3.037 0 01-.307.299 2.04 2.04 0 01-.307.214 3.042 3.042 0 01-.527.234 1.772 1.772 0 00-.383.15.945.945 0 00-.393.4 1.564 1.564 0 00-.115.655v.27l-.795.44V21.29l.795-.449v.486c.088-.228.21-.442.364-.635.147-.178.326-.33.527-.448.242-.127.505-.21.776-.243.183-.01.364-.045.537-.103a.465.465 0 00.172-.159.347.347 0 00.058-.214v-.047l.613-.346v.14a6.223 6.223 0 01-.594 1.877z" fill="#F9F132"/><path d="M32.954 27.678l1.59-.934V13.942l-1.59.933-17.545 9.777-1.591.934v12.878l1.59-.934 17.546-9.852zm-17.536-1.251l17.498-9.843v9.338l-17.469 9.824-.029-9.32z" fill="#E8630B"/><path d="M20.19 25.876l-.603.336v.056c0 .075-.02.15-.058.215a.559.559 0 01-.172.159c-.174.056-.354.09-.537.102a2.098 2.098 0 00-.776.253c-.203.111-.382.26-.527.439a2.419 2.419 0 00-.364.634v-.485l-.796.448v2.204l.796-.42v-.271c-.015-.225.018-.45.096-.663a.944.944 0 01.383-.392c.122-.063.25-.113.383-.15a3.08 3.08 0 00.537-.233 2.67 2.67 0 00.306-.215l.307-.317c-.144.28-.374.644-.67 1.12-.298.476-.5.794-.605 1a5.852 5.852 0 00-.46 1.167 4.4 4.4 0 00-.143 1.13v.261c0 .448.326.626.728.402a1.57 1.57 0 00.51-.528c.125-.212.197-.451.209-.696v-.168a6.55 6.55 0 01.153-1.373c.144-.58.337-1.149.575-1.7l.125-.298c.293-.59.493-1.22.594-1.868v-.149h.01z" fill="#F2460B"/><path d="M20.938 24.625l.019 6.732.517-.298-.019-6.733-.517.299z" fill="#fff"/><path d="M26.18 22.514l-.614.336v.056c0 .073-.02.144-.057.206a.399.399 0 01-.173.159c-.172.062-.353.1-.537.112a2.09 2.09 0 00-.776.242c-.2.115-.38.264-.527.44a2.587 2.587 0 00-.364.634v-.485l-.795.439v2.213l.795-.448v-.262c-.01-.226.03-.452.115-.663a.889.889 0 01.393-.401l.383-.15c.183-.061.36-.14.527-.233a2.01 2.01 0 00.307-.215c.112-.087.214-.184.307-.29-.144.271-.365.645-.671 1.112-.307.467-.498.803-.604 1.008-.195.372-.35.764-.46 1.167a4.4 4.4 0 00-.134 1.13v.262c0 .448.326.635.728.41a1.559 1.559 0 00.729-1.222v-.122a5.915 5.915 0 01.163-1.42c.15-.582.341-1.153.574-1.708 0-.066.077-.168.125-.29a6.306 6.306 0 00.604-1.867v-.14l-.039-.01z" fill="#F2460B"/><path d="M26.917 21.253l.02 6.733.526-.29-.019-6.732-.527.29z" fill="#fff"/><path d="M32.178 19.134l-.613.345v.066a.348.348 0 01-.058.214.464.464 0 01-.172.16 2.084 2.084 0 01-.537.102 2.287 2.287 0 00-.776.243c-.201.118-.38.27-.527.448a2.419 2.419 0 00-.364.635v-.486l-.796.449v2.204l.796-.44v-.27c-.01-.224.03-.446.115-.654a.945.945 0 01.393-.401c.12-.065.25-.115.383-.15.183-.061.36-.14.527-.233.109-.063.211-.134.306-.215a2.99 2.99 0 00.307-.299c-.144.28-.364.644-.661 1.111-.297.467-.508.813-.613 1.009a5.84 5.84 0 00-.46 1.167 4.476 4.476 0 00-.134 1.14v.252c0 .448.325.625.718.401.212-.131.388-.31.515-.521.126-.211.2-.449.213-.693v-.177a5.971 5.971 0 01.144-1.373c.149-.58.341-1.148.575-1.7 0-.065.077-.168.125-.299a6.234 6.234 0 00.604-1.867v-.14l-.01-.028z" fill="#F2460B"/><path d="M34.545 28.565l-20.68 11.636v1.784l20.69-11.645-.01-1.775zm-.048-18.219L13.808 21.991l.01 1.774L34.497 12.13v-1.784z" fill="#198F7A"/></g><defs><linearGradient id="paint0_linear_104_1580" x1="3.277" y1="49.091" x2="70" y2="49.091" gradientUnits="userSpaceOnUse"><stop stop-color="#4C4C4C"/><stop offset=".05" stop-color="#747474"/><stop offset=".11" stop-color="#A5A5A5"/><stop offset=".18" stop-color="#CCC"/><stop offset=".23" stop-color="#E8E8E8"/><stop offset=".28" stop-color="#F9F9F9"/><stop offset=".32" stop-color="#fff"/><stop offset=".36" stop-color="#F4F4F4"/><stop offset=".44" stop-color="#D7D7D7"/><stop offset=".53" stop-color="#A8A8A8"/><stop offset=".64" stop-color="#676767"/><stop offset=".69" stop-color="#4C4C4C"/><stop offset=".73" stop-color="#616161"/><stop offset=".82" stop-color="#979797"/><stop offset=".94" stop-color="#E8E8E8"/><stop offset=".97" stop-color="#E6E6E6"/><stop offset=".98" stop-color="#D4D4D4"/><stop offset=".99" stop-color="#919191"/><stop offset="1" stop-color="#4C4C4C"/></linearGradient><clipPath id="clip0_104_1580"><path fill="#fff" d="M0 0h70v70H0z"/></clipPath></defs></svg>