<svg width="45" height="28" fill="none" xmlns="http://www.w3.org/2000/svg"><g clip-path="url(#clip0_104_4551)"><rect x=".733" y=".728" width="44" height="26.4" rx="4" fill="#006"/><path fill-rule="evenodd" clip-rule="evenodd" d="M25.43 14.141a8.586 8.586 0 01-8.587 8.587 8.586 8.586 0 110-17.173 8.586 8.586 0 018.587 8.586z" fill="#C00"/><path fill-rule="evenodd" clip-rule="evenodd" d="M28.371 5.555a8.556 8.556 0 00-6.63 3.131h1.734c.237.289.455.592.655.91h-3.045a8.635 8.635 0 00-.494.91h4.033c.138.293.26.597.364.908h-4.761c-.1.296-.183.6-.25.91h5.26a8.644 8.644 0 01-.25 4.545h-4.76c.104.311.226.615.363.91h4.034a8.585 8.585 0 01-.495.909h-3.044c.199.317.418.62.655.909h1.734a8.575 8.575 0 01-.867.909 8.555 8.555 0 005.764 2.222 8.587 8.587 0 000-17.173z" fill="#F90"/><path fill-rule="evenodd" clip-rule="evenodd" d="M14.838 15.082a1.608 1.608 0 00-.208-.015c-.529 0-.796.181-.796.54 0 .22.13.36.334.36.38 0 .654-.362.67-.886zm.678 1.578h-.772l.017-.367c-.235.29-.55.428-.977.428-.505 0-.851-.394-.851-.967 0-.863.602-1.366 1.636-1.366.106 0 .242.01.38.027a.874.874 0 00.037-.23c0-.234-.163-.322-.598-.322a3.104 3.104 0 00-.987.16l.13-.797c.464-.136.77-.187 1.115-.187.8 0 1.225.359 1.224 1.038.002.182-.029.406-.076.702-.08.513-.254 1.613-.278 1.88zm-2.973 0h-.932l.534-3.348-1.193 3.348h-.635l-.079-3.329-.56 3.33h-.873l.729-4.356h1.34l.081 2.438.818-2.438h1.49l-.72 4.355zm16.98-1.578a1.6 1.6 0 00-.207-.015c-.53 0-.796.181-.796.54 0 .22.13.36.334.36.38 0 .653-.362.67-.886zm.679 1.578h-.773l.018-.367c-.236.29-.55.428-.977.428-.506 0-.852-.394-.852-.967 0-.863.603-1.366 1.637-1.366.106 0 .24.01.38.027a.87.87 0 00.036-.23c0-.234-.162-.322-.598-.322a3.11 3.11 0 00-.987.16l.13-.797c.464-.136.771-.187 1.115-.187.801 0 1.225.359 1.224 1.038.002.182-.028.406-.075.702-.08.513-.255 1.613-.278 1.88zm-10.543-.054c-.255.08-.454.115-.67.115-.476 0-.736-.273-.736-.778-.007-.156.068-.568.127-.944.054-.33.405-2.417.405-2.417h.926l-.108.536h.56l-.127.851h-.561c-.108.674-.261 1.513-.263 1.624 0 .183.097.263.32.263a.738.738 0 00.25-.034l-.123.784zm2.841-.029a3.154 3.154 0 01-.95.144c-1.038-.001-1.579-.543-1.579-1.58 0-1.21.688-2.102 1.622-2.102.764 0 1.252.499 1.252 1.281 0 .26-.033.514-.114.871h-1.846c-.062.514.267.728.806.728.331 0 .63-.068.963-.222l-.154.88zm-.52-2.1c.005-.074.097-.632-.432-.632-.295 0-.506.225-.592.632h1.023zm-5.905-.239c0 .447.218.756.71.988.377.178.436.23.436.391 0 .22-.166.321-.535.321-.279 0-.537-.044-.835-.14l-.129.818c.212.046.401.089.97.105.984 0 1.438-.375 1.438-1.184 0-.487-.19-.772-.657-.987-.39-.18-.436-.22-.436-.385 0-.191.155-.29.457-.29.183 0 .433.02.67.054l.132-.822a6.295 6.295 0 00-.82-.068c-1.043 0-1.404.544-1.4 1.199zm10.959-1.105c.259 0 .5.067.833.235l.152-.946c-.137-.053-.617-.368-1.024-.368-.624 0-1.152.31-1.522.82-.541-.18-.764.183-1.037.544l-.242.056a1.81 1.81 0 00.03-.356h-.857c-.116 1.097-.323 2.207-.486 3.304l-.042.238h.933a62.24 62.24 0 00.292-2.097l.351-.195c.053-.195.217-.261.546-.253a3.97 3.97 0 00-.066.726c0 1.159.626 1.88 1.63 1.88.258 0 .48-.034.823-.127l.164-.993c-.31.152-.563.224-.792.224-.542 0-.87-.4-.87-1.061 0-.96.487-1.631 1.184-1.631zm7.892-.828l-.207 1.258c-.255-.335-.529-.578-.89-.578-.47 0-.898.356-1.179.882a7.835 7.835 0 01-.794-.22v.004c.031-.293.044-.472.041-.533h-.856c-.116 1.097-.324 2.207-.486 3.304l-.043.238h.933a95.33 95.33 0 00.293-2.035c.32-.288.479-.539.8-.523a3.037 3.037 0 00-.226 1.15c0 .885.448 1.47 1.126 1.47.341 0 .604-.119.86-.392l-.045.33h.882l.71-4.355h-.919zm-1.166 3.537c-.317 0-.478-.235-.478-.698 0-.697.3-1.19.723-1.19.32 0 .494.243.494.694 0 .702-.305 1.194-.739 1.194z" fill="#006"/><path fill-rule="evenodd" clip-rule="evenodd" d="M12.81 16.401h-.931l.534-3.348-1.193 3.348h-.635l-.078-3.328-.562 3.328h-.872l.729-4.355h1.34l.038 2.696.904-2.696h1.448l-.721 4.355zm2.296-1.577a1.55 1.55 0 00-.208-.015c-.528 0-.795.181-.795.539 0 .22.13.361.334.361.38 0 .653-.361.67-.885zm.678 1.577h-.772l.018-.366c-.236.29-.55.428-.977.428-.506 0-.852-.395-.852-.968 0-.863.603-1.365 1.637-1.365.106 0 .24.01.38.028a.879.879 0 00.036-.23c0-.235-.162-.322-.598-.322a3.095 3.095 0 00-.987.158l.13-.796c.464-.136.77-.188 1.116-.188.8 0 1.224.36 1.223 1.039.002.182-.028.407-.075.702-.081.512-.255 1.613-.279 1.88zm12.504-4.237l-.153.945c-.333-.168-.574-.235-.833-.235-.696 0-1.184.672-1.184 1.632 0 .66.328 1.06.87 1.06.23 0 .483-.07.792-.223l-.164.992a2.909 2.909 0 01-.824.128c-1.004 0-1.629-.722-1.629-1.88 0-1.557.865-2.646 2.1-2.646.407 0 .888.173 1.024.227zm1.503 2.66a1.536 1.536 0 00-.207-.015c-.528 0-.796.181-.796.539 0 .22.13.361.334.361.38 0 .654-.361.67-.885zm.679 1.577h-.773l.018-.366c-.236.29-.55.428-.977.428-.505 0-.851-.395-.851-.968 0-.863.602-1.365 1.636-1.365.106 0 .24.01.38.028a.875.875 0 00.036-.23c0-.235-.162-.322-.598-.322a3.096 3.096 0 00-.986.158l.13-.796c.464-.136.77-.188 1.115-.188.8 0 1.224.36 1.223 1.039.002.182-.028.407-.075.702-.08.512-.254 1.613-.278 1.88zm-10.543-.053a2.13 2.13 0 01-.67.115c-.476 0-.736-.274-.736-.778-.007-.157.069-.568.128-.944.054-.331.404-2.417.404-2.417h.927l-.109.536h.476l-.127.85h-.477c-.107.675-.261 1.513-.263 1.625 0 .183.098.262.32.262.106 0 .188-.01.251-.033l-.124.784zm2.841-.028a3.172 3.172 0 01-.95.143c-1.038 0-1.579-.543-1.579-1.58 0-1.211.688-2.103 1.621-2.103.765 0 1.253.5 1.253 1.283 0 .26-.034.513-.114.87h-1.845c-.063.514.266.729.805.729.331 0 .63-.069.964-.224l-.154.882zm-.52-2.1c.005-.075.098-.633-.432-.633-.295 0-.506.225-.592.632h1.024zm-5.905-.24c0 .448.218.756.71.989.378.177.436.23.436.39 0 .221-.166.32-.535.32a2.6 2.6 0 01-.835-.139l-.128.818c.211.046.4.088.97.105.983 0 1.438-.375 1.438-1.184 0-.487-.19-.772-.658-.987-.39-.18-.435-.22-.435-.385 0-.191.155-.29.456-.29.183 0 .433.02.67.054l.133-.821a6.352 6.352 0 00-.821-.07c-1.043 0-1.404.545-1.4 1.2zm19.061 2.421h-.882l.044-.33c-.256.274-.518.392-.86.392-.677 0-1.125-.584-1.125-1.47 0-1.178.694-2.171 1.516-2.171.362 0 .636.148.89.483l.207-1.259h.92l-.71 4.355zm-1.376-.818c.435 0 .74-.492.74-1.193 0-.45-.174-.695-.494-.695-.423 0-.723.494-.723 1.19 0 .464.16.698.477.698zM31.31 12.86c-.117 1.096-.324 2.206-.486 3.303l-.043.239h.932c.334-2.166.414-2.59.937-2.536.084-.444.239-.832.354-1.027-.39-.082-.608.139-.894.558.023-.181.064-.357.056-.537h-.856zm-7.674 0c-.117 1.096-.325 2.206-.487 3.303l-.042.239h.933c.333-2.166.413-2.59.936-2.536.083-.444.239-.832.354-1.027-.39-.082-.609.139-.894.558.023-.181.064-.357.056-.537h-.856z" fill="#fff"/></g><defs><clipPath id="clip0_104_4551"><path fill="#fff" transform="translate(.733 .728)" d="M0 0h44v26.4H0z"/></clipPath></defs></svg>