<svg width="100" height="81" fill="none" xmlns="http://www.w3.org/2000/svg"><path d="M19.367 53.266c4.037 2.713 8.367 4.38 13.086 4.642v-.8c-4.53-.546-8.878-1.896-13.086-3.842z" fill="#FDB927"/><path d="M35.323 24.395l-2.694 23.3 7.53-.416.966-11.927 3.661 11.65 3.81-.314 3.028-10.296 1.243 9.986 6.01-.453-3.04-19.45-6.423-.346-2.832 10.748-3.108-11.442-8.15-1.04zm23.83 2.323l.152 19.227 9.774-.78-.015-3.988h-4.247l-.035-2.046 3.834-.034v-4.473l-3.8-.035-.069-1.907 4.283.139-.07-5.028-9.807-1.075zm19.596 7.756l3.419-2.08c-.798-1.281-1.31-2.63-3.454-3.676-1.274-.694-3.528-.93-5.077.035-2.247 1.203-3.668 3.821-3.66 6.24-.154 2.43-.06 4.887 1.174 6.936 2.05 3.418 4.986 3.52 7.822 2.496 1.332-.567 3.25-2.437 3.298-5.097l.207-3.745-5.87-.139-.035 3.572 1.83.035c-.104.849-.387 1.435-2.003 1.525-.624-.064-2.168-.293-2.107-2.323l.138-3.415c.035-.751 1.07-1.928 2.383-1.89.775.022 1.478.387 1.935 1.526zm7.071-5.326l-3.562 15 3.487-.229.382-1.868h2.446l.27 1.624 3.16-.24L89.54 29.36l-3.72-.213zm1.785 4.963l.733 4.643-1.626-.033.893-4.61z" fill="gray"/><path d="M36.495 23.611l-2.693 23.3 7.528-.415.968-11.928 3.66 11.65 3.81-.314 3.028-10.296 1.243 9.986 6.01-.453-3.04-19.45-6.423-.346-2.832 10.749-3.108-11.443-8.15-1.04zm23.83 2.324l.152 19.227 9.774-.78-.014-3.988h-4.248l-.035-2.046 3.834-.035V33.84l-3.8-.034-.068-1.907 4.282.139-.069-5.028-9.808-1.075zM79.92 33.69l3.42-2.08c-.798-1.28-1.31-2.63-3.454-3.676-1.274-.694-3.527-.93-5.077.035-2.247 1.203-3.668 3.822-3.66 6.241-.153 2.429-.06 4.886 1.174 6.935 2.05 3.418 4.986 3.521 7.822 2.496 1.332-.567 3.25-2.437 3.298-5.097l.207-3.744-5.87-.14-.035 3.572 1.83.035c-.104.849-.386 1.436-2.003 1.526-.624-.065-2.168-.294-2.106-2.324l.138-3.415c.034-.75 1.068-1.928 2.383-1.89.774.023 1.477.388 1.934 1.526zm7.071-5.326l-3.561 15 3.487-.229.383-1.868h2.445l.27 1.624 3.161-.24-2.464-14.074-3.72-.213zm1.786 4.963l.734 4.643-1.627-.032.893-4.611z" fill="#fff"/><path d="M37.082 23.219l-2.694 23.3 7.529-.416.966-11.927 3.661 11.65 3.811-.315 3.027-10.295 1.244 9.986 6.009-.453-3.04-19.45-6.423-.346L48.34 35.7l-3.108-11.44-8.15-1.04zm23.829 2.322l.152 19.227 9.774-.78L70.822 40h-4.247l-.035-2.046 3.834-.034v-4.473l-3.8-.035-.068-1.907 4.282.139-.07-5.028-9.807-1.075zm19.596 7.757l3.419-2.08c-.798-1.28-1.31-2.63-3.454-3.675-1.274-.694-3.527-.93-5.077.034-2.247 1.203-3.667 3.822-3.66 6.242-.153 2.428-.06 4.886 1.174 6.934 2.05 3.419 4.986 3.522 7.822 2.497 1.332-.568 3.25-2.437 3.298-5.097l.208-3.745-5.871-.139-.035 3.572 1.83.035c-.104.849-.386 1.435-2.003 1.525-.624-.064-2.167-.293-2.106-2.323l.138-3.415c.035-.751 1.069-1.928 2.383-1.89.774.022 1.477.387 1.934 1.525zm7.07-5.328l-3.56 15.002 3.486-.23.382-1.868h2.446l.27 1.624 3.161-.24-2.464-14.074-3.72-.213zm1.786 4.964l.734 4.643-1.627-.033.893-4.61z" fill="#EE1D25"/><path d="M38.692 33.09c0 5.573-4.437 10.09-9.911 10.09-5.474 0-9.912-4.517-9.912-10.09 0-5.572 4.438-10.09 9.912-10.09 5.474 0 9.911 4.518 9.911 10.09z" fill="#FDB927"/><path d="M38.692 33.09c0 5.573-4.437 10.09-9.911 10.09-5.474 0-9.912-4.517-9.912-10.09 0-5.572 4.438-10.09 9.912-10.09 5.474 0 9.911 4.518 9.911 10.09z" fill="url(#paint0_radial_104_3860)"/><path d="M39.279 32.698c0 5.573-4.438 10.09-9.912 10.09-5.474 0-9.912-4.517-9.912-10.09 0-5.572 4.438-10.09 9.912-10.09 5.474 0 9.912 4.518 9.912 10.09z" fill="url(#paint1_radial_104_3860)"/><path d="M27.669 33.306l-2.53-1.274-2.596 2.13.955-2.97-3.706-1.978 4.07.127.841-2.695 1.064 2.67 2.909-.008-2.07 1.595 1.063 2.403z" fill="#214489"/><path d="M32.287 28.415l-2.186-.821-1.547 1.755.078-2.587-2.36-1.572 2.48-.184.236-1.892 1.289 1.881 2.01-.041-1.185 1.441 1.185 2.02zm4.263.841l-1.424-.23-.477 1.607-.758-1.85-1.583-.362 1.428-.879-.19-1.865 1.156 1.307 1.128-.785-.376 1.681 1.096 1.376zm-.066 6.15l-.983-1.79-1.495.197 1.064-1.29-.509-1.806 1.151.846.987-1.176-.03 1.786 1.334.811-1.456.255-.063 2.167zm-7.221 4.652l-1.845-1.406-3.097 2.306 1.403-3.063-2.83-2.095 3.814.085.94-2.572.895 2.483 2.402.066-2.07 1.492.388 2.704z" fill="#214489"/><path d="M36.253 36.6l-1.984-.342-.278-2.353-1.055 2.167-2.007-.216 1.333 1.68-.963 2.22 1.879-1.129 1.33 1.455-.09-2.245 1.835-1.238z" fill="#214489"/><path d="M25.837 44.752c6.251 3.097 12.37-.206 14.147-5.932-3.027 4.76-10.384 6.467-14.147 5.932zm-7.141-16.04c.643-2.02 2.58-4.613 4.698-5.277-.704-.436-4.413-3.397-10.353-2.411-5.359 1.234-4.79 7.359-4.01 9.836.056-1.482-.101-3.5.812-4.676.452-.51 3.193-1.677 8.567 2.29.43.315-.925-.73.286.238z" fill="#FDB927"/><path d="M17.743 30.072c-1.636-1.538-3.476-2.72-5.752-3.615-2.726 11.815 7.74 20.737 14.411 25.23-5.55-1.017-19.89-10.63-19.734-24.082-.033-.918.588-7.636 7.888-7.857 4.697.096 6.678 1.157 8.599 2.053" stroke="#FDB927" stroke-width="2.95"/><path d="M17.502 30.337l.73.672.202-.823-.491-.415-.313.234-.158.166.03.166zm5.472-8.225c.533.294 1.055.59 1.556.89l1.105-.242c-.798-.434-1.778-1.053-2.37-1.301l-.23.275-.06.378zm1.308 29.316c1.293.542 3.797 1.149 5.817 1.031-2.108-.437-2.63-.42-4.231-1.563l-.925.112-.661.42z" fill="#FDB927"/><path d="M10.647 26.828c-1.03 3.5-.267 7.558 1.624 12.136-2.186-3.744-5.343-7.433-1.624-12.136zm7.637-1.932c-2.24 4.07-2.747 8.206-.661 12.438-1.148-4.146-.754-8.292.661-12.438z" fill="#EE1D25"/><path d="M92.732 46.348l-.584 1.642-.934-.4c-.765-.182-.853.727-.444.798l.91.235c.56.18.774.61.889.89.263.93.039 1.316-.07 1.83-.363.982-1.047 1.404-1.893 1.548-1.06.158-1.597-.053-2.242-.188l.724-1.97c.133.51.73.526.888.563.353.09.635-.053.77-.234.197-.341-.026-.58-.233-.657l-1.028-.211c-.618-.166-.792-.921-.899-1.372-.068-.6.003-1.132.31-1.646.241-.459.524-.766.95-1.09.392-.262 1.088-.366 1.625-.278.866.18.913.36 1.261.54zm-59.779 2.609l-1.622 11.897 5.19-.685.127-6.146 2.658 5.7 2.7-.344 1.888-6.033.948 5.653 3.96-.594-2.21-9.941-4.59.068-1.62 6.125-2.067-5.926-5.362.226zm16.885-.663l4.104-.297.139 9.661-3.854.555-.389-9.92zm5.744-.416l3.741-.203.039 6.346 2.888-.291-.01 2.851-6.609.94-.049-9.643zm14.084-.696l2.845-.224.032 8.225-2.877.45v-8.451zm11.06 5.015c-1.02 2.099-3.377 3.113-5.263 2.266-1.885-.847-2.587-3.235-1.567-5.334 1.02-2.098 3.377-3.112 5.263-2.265 1.886.847 2.587 3.235 1.567 5.333zm-17.615-4.639l3.174-.19.033 5.925 2.45-.272-.009 2.661-5.607.879-.041-9.003zm18.815-1.193l-.057 7.582 2.043-.276.069-3.964 1.675 3.664 2.158-.138.16-7.167-2.042.115.08 4.056-1.894-3.998-2.192.127z" fill="gray"/><path d="M93.51 45.61l-.584 1.642-.935-.399c-.764-.182-.853.726-.444.798l.911.234c.56.181.773.61.888.891.263.93.04 1.316-.07 1.83-.362.981-1.047 1.404-1.892 1.547-1.062.159-1.597-.053-2.242-.187l.724-1.97c.132.51.729.525.887.563.354.09.635-.053.771-.235.196-.341-.026-.579-.234-.656l-1.027-.212c-.619-.165-.792-.92-.9-1.371-.068-.6.003-1.133.31-1.647.242-.458.525-.765.951-1.09.392-.261 1.088-.366 1.624-.277.866.18.913.36 1.262.54zm-59.822 2.651l-1.622 11.897 5.19-.684.127-6.146 2.658 5.7 2.7-.344 1.888-6.034.948 5.653 3.959-.593-2.209-9.942-4.59.068-1.62 6.125-2.067-5.926-5.362.227zm16.842-.662l4.104-.297.14 9.662-3.855.555-.389-9.92zm5.745-.588l3.74-.203.04 6.346 2.888-.29-.011 2.85-6.608.941-.05-9.644zm14.215-.655l2.844-.224.032 8.225-2.877.45v-8.451zm11.06 5.016c-1.021 2.098-3.377 3.112-5.263 2.265-1.886-.847-2.588-3.235-1.567-5.333 1.02-2.099 3.376-3.113 5.262-2.266 1.886.847 2.588 3.235 1.567 5.334zm-17.62-4.638l3.175-.19.033 5.925 2.45-.272-.009 2.662-5.607.878-.041-9.003zm18.817-1.107l-.058 7.581 2.043-.276.069-3.964 1.675 3.664 2.158-.138.16-7.167-2.042.115.08 4.056-1.894-3.998-2.191.127z" fill="#fff"/><path d="M93.864 45.299l-.584 1.642-.934-.4c-.765-.181-.853.727-.444.798l.91.235c.56.18.773.61.888.891.263.93.04 1.315-.07 1.83-.362.98-1.046 1.403-1.892 1.547-1.061.158-1.597-.053-2.242-.188l.724-1.97c.132.51.73.526.888.563.353.09.635-.053.77-.234.196-.341-.026-.58-.233-.657l-1.028-.211c-.619-.165-.792-.921-.9-1.372-.068-.6.003-1.132.31-1.646.242-.459.525-.766.951-1.09.392-.262 1.088-.366 1.625-.277.865.18.912.36 1.26.539zm-59.779 2.61l-1.622 11.896 5.19-.684.127-6.146 2.658 5.7 2.7-.344 1.888-6.034.947 5.654 3.96-.594-2.209-9.941-4.59.067-1.62 6.125-2.068-5.925-5.36.226zm16.885-.579l4.104-.297.139 9.662-3.854.555-.39-9.92zm5.744-.502l3.741-.203.038 6.347 2.889-.291-.011 2.85-6.608.942-.049-9.645zm14.084-.695l2.845-.224.032 8.225-2.877.45v-8.451zm11.06 5.017c-1.02 2.097-3.377 3.112-5.263 2.264-1.886-.847-2.587-3.235-1.567-5.333 1.02-2.098 3.377-3.113 5.263-2.265 1.886.847 2.587 3.235 1.567 5.333zm-17.615-4.684l3.174-.19.033 5.925 2.45-.272.034 2.705-5.65.835-.041-9.003zm18.815-1.149l-.057 7.581 2.042-.276.07-3.964 1.675 3.664 2.157-.138.161-7.167-2.043.115.08 4.056-1.893-3.998-2.192.127z" fill="#33337A"/><path d="M78.752 46.675l-.608 1.925-2.62.235 2.105 1.268-.56 2.348 1.776-1.597 1.638.751-.608-1.737 1.45-1.409-1.778.094-.795-1.878z" fill="#fff"/><defs><radialGradient id="paint0_radial_104_3860" cx="0" cy="0" r="1" gradientUnits="userSpaceOnUse" gradientTransform="matrix(3.33696 10.02649 -10.72995 3.57108 24.79 29.856)"><stop stop-color="#FFF6D5"/><stop offset="1" stop-color="#FFF6D5" stop-opacity="0"/></radialGradient><radialGradient id="paint1_radial_104_3860" cx="0" cy="0" r="1" gradientUnits="userSpaceOnUse" gradientTransform="matrix(1.10272 4.13191 -4.95175 1.32152 25.534 29.89)"><stop stop-color="#FFF6D5"/><stop offset="1" stop-color="#FFF6D5" stop-opacity="0"/></radialGradient></defs></svg>