<svg width="45" height="27" fill="none" xmlns="http://www.w3.org/2000/svg"><g clip-path="url(#clip0_104_4720)"><rect x=".733" y=".128" width="44" height="26.4" rx="4" fill="#862165"/><path fill-rule="evenodd" clip-rule="evenodd" d="M28.369 11.038a1.06 1.06 0 100-2.119 1.06 1.06 0 000 2.119zm-8.116.571c-.047.12-.391 1.093-1.224 2.1V9.401l-2.217.439v7.808h2.217v-2.413c.643.963.96 2.413.96 2.413h2.656c-.263-1.092-1.412-3.106-1.412-3.106a9.725 9.725 0 001.556-2.933h-2.536zm5.83-.081c-1.986.064-2.994.955-2.994 2.726v3.394h2.167V14.88c0-1.06.139-1.515 1.397-1.558v-1.763c-.211-.045-.57-.031-.57-.031zm-12.99.941c-.272-.017-.901-.058-.901-.624 0-.683.905-.683 1.245-.683.597 0 1.37.176 1.923.341 0 0 .308.109.57.22l.024.007V9.859l-.033-.01c-.652-.228-1.41-.448-2.815-.448-2.422 0-3.28 1.412-3.28 2.62 0 .697.298 2.338 3.072 2.527.235.014.86.05.86.635 0 .484-.511.768-1.37.768-.943 0-1.857-.24-2.411-.468v1.927c.83.218 1.767.327 2.865.327 2.368 0 3.43-1.335 3.43-2.659 0-1.5-1.188-2.475-3.18-2.609zm14.202 5.18h2.149v-6.033h-2.15v6.032zm6.196-7.863v7.862h2.15V9.401l-2.15.385zm-3.136 0l2.147-.385v8.247h-2.147V9.786z" fill="#fff"/></g><defs><clipPath id="clip0_104_4720"><path fill="#fff" transform="translate(.733 .128)" d="M0 0h44v26.4H0z"/></clipPath></defs></svg>