<svg width="16" height="16" fill="none" xmlns="http://www.w3.org/2000/svg"><circle cx="8" cy="8" r="8" fill="#1DA1F3"/><path d="M11.398 6.501v.217c0 2.243-1.712 4.832-4.832 4.832a4.878 4.878 0 01-2.61-.759 3.438 3.438 0 002.513-.704 1.681 1.681 0 01-1.582-1.18 1.574 1.574 0 00.77-.033A1.686 1.686 0 014.29 7.216v-.021c.228.13.488.206.77.216a1.701 1.701 0 01-.759-1.419c0-.314.087-.606.228-.856a4.832 4.832 0 003.499 1.777 1.538 1.538 0 01-.043-.39c0-.942.758-1.7 1.7-1.7.488 0 .932.205 1.235.53a3.45 3.45 0 001.084-.412c-.13.401-.401.726-.748.943.347-.043.672-.13.975-.27-.216.346-.498.65-.834.887z" fill="#FAFBFC"/></svg>