<svg width="20" height="14" fill="none" xmlns="http://www.w3.org/2000/svg"><path d="M.001.049h23.002v14H.002v-14z" fill="#fff"/><path d="M.001.049h23.002v.946H.002V.05zm0 1.892h23.002v.947H.002V1.94zm0 1.893h23.002v.946H.002v-.946zm0 1.892h23.002v.946H.002v-.946zm0 1.893h23.002v.946H.002v-.946zm0 1.892h23.002v.946H.002v-.946zm0 1.893h23.002v.946H.002v-.946zm.032 1.724h23.002v.947H.033v-.947zm0 1.893h23.002v.946H.033v-.946zm0 1.892h23.002v.947H.033v-.947zm0 1.893h23.002v.946H.033v-.946zm0 1.892h23.002v.947H.033v-.947zm0 1.893h23.002v.946H.033v-.946zm0 1.892h23.002v.946H.033v-.946z" fill="#B22234"/><path d="M.001.049h9.201v6.623h-9.2V.05z" fill="#3C3B6E"/><path d="M.434.586l.219.162-.084.262.22-.162.218.162L.924.748l.219-.162H.872L.788.325.704.586h-.27zm1.525 0l.22.162-.085.262.22-.162.219.162-.084-.262.22-.162h-.272L2.314.325 2.23.586h-.271zm1.525 0l.22.162-.084.262.219-.162.22.162-.085-.262.22-.162h-.271L3.839.325l-.084.261h-.27zm1.526 0l.219.162-.084.262.22-.162.219.162L5.5.748l.22-.162h-.272L5.364.325l-.083.261H5.01zm1.525 0l.22.162-.084.262.219-.162.219.162-.084-.262.22-.162h-.271L6.89.325l-.084.261h-.27zm1.526 0l.219.162-.084.262.22-.162.218.162-.083-.262.219-.162h-.271L8.415.325l-.083.261H8.06zm-6.865.665l.22.162-.084.261.219-.161.22.161-.085-.261.22-.162h-.271L1.55.989l-.084.262h-.27zm1.526 0l.219.162-.084.261.22-.161.219.161-.084-.261.219-.162H3.16L3.076.989l-.083.262h-.271zm1.525 0l.22.162-.084.261.219-.161.219.161-.084-.261.22-.162h-.272L4.602.989l-.084.262h-.27zm1.526 0l.219.162-.084.261.22-.161.218.161-.083-.261.219-.162H6.21L6.127.989l-.084.262h-.27zm1.525 0l.22.162-.085.261.22-.161.219.161-.084-.261.22-.162h-.272L7.652.989l-.083.262h-.271zm-6.864.664l.219.162-.084.262.22-.162.218.162-.083-.262.219-.162H.872l-.084-.262-.084.262h-.27zm1.525 0l.22.162-.085.262.22-.162.219.162-.084-.262.22-.162h-.272l-.083-.262-.084.262h-.271zm1.525 0l.22.162-.084.262.219-.162.22.162-.085-.262.22-.162h-.271l-.084-.262-.084.262h-.27zm1.526 0l.219.162-.084.262.22-.162.219.162-.084-.262.22-.162h-.272l-.084-.262-.083.262H5.01zm1.525 0l.22.162-.084.262.219-.162.219.162-.084-.262.22-.162h-.271l-.084-.262-.084.262h-.27zm1.526 0l.219.162-.084.262.22-.162.218.162-.083-.262.219-.162h-.271l-.084-.262-.083.262H8.06zm-6.846.666l.22.162-.084.262.219-.162.219.162-.084-.262.22-.162h-.272L1.57 2.32l-.084.261h-.27zm1.526 0l.219.162-.084.262.22-.162.218.162-.083-.262.219-.162h-.271l-.084-.261-.084.261h-.27zm1.525 0l.22.162-.085.262.22-.162.219.162-.084-.262.22-.162h-.272l-.083-.261-.084.261h-.271zm1.525 0l.22.162-.084.262.219-.162.22.162-.085-.262.22-.162H6.23l-.084-.261-.084.261h-.27zm1.526 0l.219.162-.084.262.22-.162.218.162-.083-.262.219-.162h-.27L7.67 2.32l-.083.261h-.271zm-6.86.66l.219.16-.084.263.22-.162.219.162-.084-.262.219-.162h-.27L.81 2.978l-.083.262h-.27zm1.525 0l.22.16-.084.263.219-.162.219.162-.084-.262.22-.162H2.42l-.084-.262-.084.262h-.27zm1.526 0l.219.16-.084.263.22-.162.218.162-.083-.262.219-.162h-.271l-.084-.262-.084.262h-.27zm1.525 0l.22.16-.085.263.22-.162.219.162-.084-.262.22-.162H5.47l-.083-.262-.084.262h-.271zm1.525 0l.22.16-.084.263.219-.162.22.162-.085-.262.22-.162h-.271l-.084-.262-.084.262h-.27zm1.526 0l.219.16-.084.263.22-.162.219.162-.084-.262.219-.162h-.27l-.085-.262-.083.262h-.271zM.47 4.547l.22.161-.085.262.22-.162.219.162-.084-.26.22-.161H.908l-.083-.262-.084.262h-.27zm1.525 0l.22.161-.084.262.219-.162.22.162-.084-.262.219-.161h-.271l-.084-.262-.084.262h-.27zm1.526 0l.219.161-.084.262.22-.162.219.162-.084-.262.22-.161H3.96l-.084-.262-.083.262h-.271zm1.525 0l.22.161-.084.262.219-.162.219.162-.084-.262.22-.161h-.271l-.084-.262-.084.262h-.27zm1.526 0l.219.161-.084.262.22-.162.218.162-.083-.262.219-.161H7.01l-.084-.262-.083.262h-.271zm1.525 0l.22.161-.084.262.219-.162.219.162-.084-.262.22-.161h-.272l-.083-.262-.084.262h-.271zM.452 5.87l.22.162-.084.262.22-.162.218.162-.084-.262.22-.162H.89l-.083-.26-.084.261h-.27zm1.526 0l.219.162-.084.262.22-.162.219.162-.084-.262.219-.162h-.27l-.085-.261-.083.261h-.271zm1.525 0l.22.162-.084.262.219-.162.219.162-.084-.262.22-.162h-.271l-.084-.261-.084.261h-.27zm1.526 0l.219.162-.084.262.22-.162.218.162-.083-.262.219-.162h-.271l-.084-.261-.083.261h-.271zm1.525 0l.22.162-.085.262.22-.162.219.162-.084-.262.22-.162h-.272l-.082-.26-.084.261h-.271zm1.525 0l.22.162-.084.262.219-.162.22.162-.085-.262.22-.162h-.271l-.084-.261-.084.261h-.27zM1.22 3.887l.22.162-.084.262.22-.162.218.162-.083-.262.219-.162h-.271l-.084-.261-.083.261H1.22zm1.526 0l.22.162-.085.262.22-.162.219.162-.084-.262.22-.162h-.272L3.1 3.626l-.084.261h-.27zm1.525 0l.22.162-.084.262.22-.162.218.162-.083-.262.219-.162H4.71l-.084-.261-.084.261h-.27zm1.526 0l.219.162-.084.262.22-.162.219.162-.084-.262.22-.162h-.272l-.084-.261-.083.261h-.271zm1.525 0l.22.162-.084.262.219-.162.219.162-.084-.262.22-.162H7.76l-.084-.261-.084.261h-.27zM1.215 5.208l.22.162-.084.262.219-.162.219.162-.084-.262.22-.162h-.272l-.083-.262-.084.262h-.27zm1.526 0l.219.162-.084.262.22-.162.218.162-.083-.262.219-.162h-.271l-.084-.262-.084.262h-.27zm1.525 0l.22.162-.085.262.22-.162.219.162-.084-.262.22-.162h-.272l-.083-.262-.084.262h-.271zm1.525 0l.22.162-.084.262.219-.162.22.162-.085-.262.22-.162H6.23l-.084-.262-.084.262h-.27zm1.526 0l.219.162-.084.262.22-.162.218.162-.083-.262.219-.162h-.27l-.085-.262-.083.262h-.271z" fill="#fff"/></svg>