<svg width="45" height="28" fill="none" xmlns="http://www.w3.org/2000/svg"><g clip-path="url(#clip0_104_4542)"><rect x=".733" y=".728" width="44" height="26.4" rx="4" fill="#26337A"/><path fill-rule="evenodd" clip-rule="evenodd" d="M18.989 18.128l1.353-8.392h2.162l-1.353 8.392H18.99zm10.007-8.186a5.346 5.346 0 00-1.938-.352c-2.138 0-3.643 1.139-3.656 2.77-.013 1.206 1.074 1.879 1.894 2.28.843.41 1.126.674 1.123 1.041-.006.562-.673.82-1.295.82-.866 0-1.326-.127-2.037-.44l-.278-.134-.302 1.879c.504.233 1.439.436 2.409.447 2.272 0 3.749-1.125 3.766-2.867.008-.956-.569-1.681-1.817-2.28-.755-.39-1.22-.647-1.214-1.04 0-.35.392-.723 1.239-.723a3.794 3.794 0 011.619.322l.194.096.293-1.819zm2.879 5.211c.18-.482.862-2.346.862-2.346-.013.022.178-.486.287-.8l.146.723s.415 2.004.5 2.423h-1.795zm2.668-5.408h-1.671c-.519 0-.907.148-1.134.695l-3.211 7.692h2.271s.37-1.035.455-1.262l2.77.004c.065.293.263 1.258.263 1.258h2.007l-1.75-8.387zm-17.369-.002l-2.116 5.722-.227-1.163c-.394-1.34-1.622-2.793-2.996-3.52l1.937 7.34 2.289-.002 3.405-8.377h-2.292z" fill="#FFFFFE"/><path fill-rule="evenodd" clip-rule="evenodd" d="M13.093 9.737H9.606l-.03.174c2.714.695 4.51 2.373 5.255 4.39l-.758-3.856c-.13-.531-.51-.69-.98-.708z" fill="#EC982D"/></g><defs><clipPath id="clip0_104_4542"><path fill="#fff" transform="translate(.733 .728)" d="M0 0h44v26.4H0z"/></clipPath></defs></svg>