<svg width="16" height="16" fill="none" xmlns="http://www.w3.org/2000/svg"><circle cx="8" cy="8" r="8" fill="#25D366"/><path d="M10.167 8.953c-.13-.043-.694-.347-.824-.39-.13-.043-.173-.043-.26.043-.119.168-.25.327-.39.477-.086.087-.13.087-.26.043a2.357 2.357 0 01-.953-.606 2.687 2.687 0 01-.65-.824c-.087-.13 0-.173.043-.26a.95.95 0 00.174-.216c.043-.087.086-.13.13-.217.043-.087 0-.13 0-.217 0-.086-.26-.65-.39-.866-.13-.217-.174-.217-.26-.217H6.31a.468.468 0 00-.303.13 1.252 1.252 0 00-.434.997c.04.443.205.865.477 1.217a4.732 4.732 0 002.041 1.781c.303.13.52.174.693.26.238.077.492.092.737.044a1.5 1.5 0 00.823-.564 2.06 2.06 0 00.087-.563.762.762 0 01-.26-.043l-.004-.009zM8 11.9a3.813 3.813 0 01-2.04-.564l-.13-.086-1.522.39.394-1.474-.086-.13a4.043 4.043 0 01-.607-2.127A3.995 3.995 0 118 11.899zm3.384-7.332A4.953 4.953 0 008 3.18a4.767 4.767 0 00-4.767 4.767c0 .84.225 1.664.65 2.387l-.702 2.483 2.561-.65a4.632 4.632 0 002.301.564 4.768 4.768 0 004.767-4.767 4.996 4.996 0 00-1.434-3.384" fill="#FAFBFC"/></svg>